<?xml version="1.0" encoding="UTF-8"?>
<!--Generator: Apple Native CoreSVG 175-->
<!DOCTYPE svg
PUBLIC "-//W3C//DTD SVG 1.1//EN"
       "http://www.w3.org/Graphics/SVG/1.1/DTD/svg11.dtd">
<svg version="1.1" xmlns="http://www.w3.org/2000/svg" xmlns:xlink="http://www.w3.org/1999/xlink" width="3300" height="2200">
 <!--glyph: "", point size: 100.0, font version: "17.3d3e1", template writer version: "65.1"-->
 <g id="Notes">
  <rect height="2200" id="artboard" style="fill:white;opacity:1" width="3300" x="0" y="0"/>
  <line style="fill:none;stroke:black;opacity:1;stroke-width:0.5;" x1="263" x2="3036" y1="292" y2="292"/>
  <text style="stroke:none;fill:black;font-family:sans-serif;font-size:13;font-weight:bold;" transform="matrix(1 0 0 1 263 322)">Weight/Scale Variations</text>
  <text style="stroke:none;fill:black;font-family:sans-serif;font-size:13;text-anchor:middle;" transform="matrix(1 0 0 1 559.711 322)">Ultralight</text>
  <text style="stroke:none;fill:black;font-family:sans-serif;font-size:13;text-anchor:middle;" transform="matrix(1 0 0 1 856.422 322)">Thin</text>
  <text style="stroke:none;fill:black;font-family:sans-serif;font-size:13;text-anchor:middle;" transform="matrix(1 0 0 1 1153.13 322)">Light</text>
  <text style="stroke:none;fill:black;font-family:sans-serif;font-size:13;text-anchor:middle;" transform="matrix(1 0 0 1 1449.84 322)">Regular</text>
  <text style="stroke:none;fill:black;font-family:sans-serif;font-size:13;text-anchor:middle;" transform="matrix(1 0 0 1 1746.56 322)">Medium</text>
  <text style="stroke:none;fill:black;font-family:sans-serif;font-size:13;text-anchor:middle;" transform="matrix(1 0 0 1 2043.27 322)">Semibold</text>
  <text style="stroke:none;fill:black;font-family:sans-serif;font-size:13;text-anchor:middle;" transform="matrix(1 0 0 1 2339.98 322)">Bold</text>
  <text style="stroke:none;fill:black;font-family:sans-serif;font-size:13;text-anchor:middle;" transform="matrix(1 0 0 1 2636.69 322)">Heavy</text>
  <text style="stroke:none;fill:black;font-family:sans-serif;font-size:13;text-anchor:middle;" transform="matrix(1 0 0 1 2933.4 322)">Black</text>
  <line style="fill:none;stroke:black;opacity:1;stroke-width:0.5;" x1="263" x2="3036" y1="1903" y2="1903"/>
  <g transform="matrix(1 0 0 1 263 1933)">
   <path d="M9.24805 0.830078Q10.8691 0.830078 12.2949 0.214844Q13.7207-0.400391 14.8096-1.49414Q15.8984-2.58789 16.5186-4.01367Q17.1387-5.43945 17.1387-7.05078Q17.1387-8.66211 16.5186-10.0879Q15.8984-11.5137 14.8047-12.6074Q13.7109-13.7012 12.2852-14.3164Q10.8594-14.9316 9.23828-14.9316Q7.62695-14.9316 6.20117-14.3164Q4.77539-13.7012 3.69141-12.6074Q2.60742-11.5137 1.9873-10.0879Q1.36719-8.66211 1.36719-7.05078Q1.36719-5.43945 1.9873-4.01367Q2.60742-2.58789 3.69629-1.49414Q4.78516-0.400391 6.21094 0.214844Q7.63672 0.830078 9.24805 0.830078ZM9.24805-0.654297Q7.91992-0.654297 6.7627-1.14746Q5.60547-1.64062 4.73145-2.51953Q3.85742-3.39844 3.36426-4.56055Q2.87109-5.72266 2.87109-7.05078Q2.87109-8.37891 3.35938-9.54102Q3.84766-10.7031 4.72168-11.582Q5.5957-12.4609 6.75293-12.9541Q7.91016-13.4473 9.23828-13.4473Q10.5762-13.4473 11.7334-12.9541Q12.8906-12.4609 13.7695-11.582Q14.6484-10.7031 15.1465-9.54102Q15.6445-8.37891 15.6445-7.05078Q15.6445-5.72266 15.1514-4.56055Q14.6582-3.39844 13.7842-2.51953Q12.9102-1.64062 11.748-1.14746Q10.5859-0.654297 9.24805-0.654297ZM5.6543-7.05078Q5.6543-6.72852 5.85938-6.52832Q6.06445-6.32812 6.40625-6.32812L8.51562-6.32812L8.51562-4.20898Q8.51562-3.88672 8.71094-3.67676Q8.90625-3.4668 9.23828-3.4668Q9.56055-3.4668 9.77051-3.67676Q9.98047-3.88672 9.98047-4.20898L9.98047-6.32812L12.0898-6.32812Q12.4219-6.32812 12.627-6.52832Q12.832-6.72852 12.832-7.05078Q12.832-7.38281 12.627-7.58789Q12.4219-7.79297 12.0898-7.79297L9.98047-7.79297L9.98047-9.90234Q9.98047-10.2344 9.77051-10.4443Q9.56055-10.6543 9.23828-10.6543Q8.90625-10.6543 8.71094-10.4443Q8.51562-10.2344 8.51562-9.90234L8.51562-7.79297L6.40625-7.79297Q6.06445-7.79297 5.85938-7.58789Q5.6543-7.38281 5.6543-7.05078Z"/>
  </g>
  <g transform="matrix(1 0 0 1 281.867 1933)">
   <path d="M11.709 2.91016Q13.75 2.91016 15.5518 2.12891Q17.3535 1.34766 18.7305-0.0292969Q20.1074-1.40625 20.8887-3.20801Q21.6699-5.00977 21.6699-7.05078Q21.6699-9.0918 20.8887-10.8936Q20.1074-12.6953 18.7305-14.0723Q17.3535-15.4492 15.5469-16.2305Q13.7402-17.0117 11.6992-17.0117Q9.6582-17.0117 7.85645-16.2305Q6.05469-15.4492 4.68262-14.0723Q3.31055-12.6953 2.5293-10.8936Q1.74805-9.0918 1.74805-7.05078Q1.74805-5.00977 2.5293-3.20801Q3.31055-1.40625 4.6875-0.0292969Q6.06445 1.34766 7.86621 2.12891Q9.66797 2.91016 11.709 2.91016ZM11.709 1.25Q9.98047 1.25 8.47656 0.605469Q6.97266-0.0390625 5.83496-1.17676Q4.69727-2.31445 4.05762-3.81836Q3.41797-5.32227 3.41797-7.05078Q3.41797-8.7793 4.05762-10.2832Q4.69727-11.7871 5.83008-12.9297Q6.96289-14.0723 8.4668-14.7119Q9.9707-15.3516 11.6992-15.3516Q13.4277-15.3516 14.9316-14.7119Q16.4355-14.0723 17.5781-12.9297Q18.7207-11.7871 19.3652-10.2832Q20.0098-8.7793 20.0098-7.05078Q20.0098-5.32227 19.3701-3.81836Q18.7305-2.31445 17.5928-1.17676Q16.4551-0.0390625 14.9463 0.605469Q13.4375 1.25 11.709 1.25ZM7.17773-7.05078Q7.17773-6.69922 7.41211-6.47461Q7.64648-6.25 8.01758-6.25L10.8887-6.25L10.8887-3.36914Q10.8887-2.99805 11.1133-2.76855Q11.3379-2.53906 11.6895-2.53906Q12.0605-2.53906 12.29-2.76855Q12.5195-2.99805 12.5195-3.36914L12.5195-6.25L15.4004-6.25Q15.7715-6.25 16.001-6.47461Q16.2305-6.69922 16.2305-7.05078Q16.2305-7.42188 16.001-7.65137Q15.7715-7.88086 15.4004-7.88086L12.5195-7.88086L12.5195-10.752Q12.5195-11.1328 12.29-11.3623Q12.0605-11.5918 11.6895-11.5918Q11.3379-11.5918 11.1133-11.3574Q10.8887-11.123 10.8887-10.752L10.8887-7.88086L8.01758-7.88086Q7.63672-7.88086 7.40723-7.65137Q7.17773-7.42188 7.17773-7.05078Z"/>
  </g>
  <g transform="matrix(1 0 0 1 305.646 1933)">
   <path d="M14.9707 5.66406Q17.0605 5.66406 18.96 5.01465Q20.8594 4.36523 22.4512 3.19336Q24.043 2.02148 25.2197 0.429688Q26.3965-1.16211 27.0459-3.06641Q27.6953-4.9707 27.6953-7.05078Q27.6953-9.14062 27.0459-11.04Q26.3965-12.9395 25.2197-14.5312Q24.043-16.123 22.4512-17.2998Q20.8594-18.4766 18.9551-19.126Q17.0508-19.7754 14.9609-19.7754Q12.8711-19.7754 10.9717-19.126Q9.07227-18.4766 7.48535-17.2998Q5.89844-16.123 4.72168-14.5312Q3.54492-12.9395 2.90039-11.04Q2.25586-9.14062 2.25586-7.05078Q2.25586-4.9707 2.90527-3.06641Q3.55469-1.16211 4.72656 0.429688Q5.89844 2.02148 7.49023 3.19336Q9.08203 4.36523 10.9814 5.01465Q12.8809 5.66406 14.9707 5.66406ZM14.9707 3.84766Q13.1641 3.84766 11.5283 3.2959Q9.89258 2.74414 8.53516 1.74805Q7.17773 0.751953 6.17676-0.610352Q5.17578-1.97266 4.62891-3.6084Q4.08203-5.24414 4.08203-7.05078Q4.08203-8.86719 4.62891-10.5029Q5.17578-12.1387 6.17188-13.501Q7.16797-14.8633 8.52539-15.8594Q9.88281-16.8555 11.5186-17.4023Q13.1543-17.9492 14.9609-17.9492Q16.7773-17.9492 18.4131-17.4023Q20.0488-16.8555 21.4111-15.8594Q22.7734-14.8633 23.7695-13.501Q24.7656-12.1387 25.3174-10.5029Q25.8691-8.86719 25.8691-7.05078Q25.8789-5.24414 25.332-3.6084Q24.7852-1.97266 23.7842-0.610352Q22.7832 0.751953 21.4209 1.74805Q20.0586 2.74414 18.4229 3.2959Q16.7871 3.84766 14.9707 3.84766ZM9.19922-7.05078Q9.19922-6.66992 9.45801-6.4209Q9.7168-6.17188 10.1172-6.17188L14.0625-6.17188L14.0625-2.2168Q14.0625-1.81641 14.3115-1.55762Q14.5605-1.29883 14.9512-1.29883Q15.3516-1.29883 15.6104-1.55273Q15.8691-1.80664 15.8691-2.2168L15.8691-6.17188L19.8242-6.17188Q20.2246-6.17188 20.4785-6.4209Q20.7324-6.66992 20.7324-7.05078Q20.7324-7.46094 20.4785-7.71484Q20.2246-7.96875 19.8242-7.96875L15.8691-7.96875L15.8691-11.9141Q15.8691-12.3242 15.6104-12.583Q15.3516-12.8418 14.9512-12.8418Q14.5605-12.8418 14.3115-12.583Q14.0625-12.3242 14.0625-11.9141L14.0625-7.96875L10.1172-7.96875Q9.70703-7.96875 9.45312-7.71484Q9.19922-7.46094 9.19922-7.05078Z"/>
  </g>
  <text style="stroke:none;fill:black;font-family:sans-serif;font-size:13;font-weight:bold;" transform="matrix(1 0 0 1 263 1953)">Design Variations</text>
  <text style="stroke:none;fill:black;font-family:sans-serif;font-size:13;" transform="matrix(1 0 0 1 263 1971)">Symbols are supported in up to nine weights and three scales.</text>
  <text style="stroke:none;fill:black;font-family:sans-serif;font-size:13;" transform="matrix(1 0 0 1 263 1989)">For optimal layout with text and other symbols, vertically align</text>
  <text style="stroke:none;fill:black;font-family:sans-serif;font-size:13;" transform="matrix(1 0 0 1 263 2007)">symbols with the adjacent text.</text>
  <line style="fill:none;stroke:#00AEEF;stroke-width:0.5;opacity:1.0;" x1="776" x2="776" y1="1919" y2="1933"/>
  <g transform="matrix(1 0 0 1 776 1933)">
   <path d="M3.31055 0.15625Q3.70117 0.15625 3.91602-0.00976562Q4.13086-0.175781 4.26758-0.585938L5.52734-4.0332L11.2891-4.0332L12.5488-0.585938Q12.6855-0.175781 12.9004-0.00976562Q13.1152 0.15625 13.4961 0.15625Q13.8867 0.15625 14.1162-0.0585938Q14.3457-0.273438 14.3457-0.644531Q14.3457-0.869141 14.2383-1.17188L9.6582-13.3691Q9.48242-13.8184 9.17969-14.043Q8.87695-14.2676 8.4082-14.2676Q7.5-14.2676 7.17773-13.3789L2.59766-1.16211Q2.49023-0.859375 2.49023-0.634766Q2.49023-0.263672 2.70996-0.0537109Q2.92969 0.15625 3.31055 0.15625ZM6.00586-5.51758L8.37891-12.0898L8.42773-12.0898L10.8008-5.51758Z"/>
  </g>
  <line style="fill:none;stroke:#00AEEF;stroke-width:0.5;opacity:1.0;" x1="793.197" x2="793.197" y1="1919" y2="1933"/>
  <text style="stroke:none;fill:black;font-family:sans-serif;font-size:13;font-weight:bold;" transform="matrix(1 0 0 1 776 1953)">Margins</text>
  <text style="stroke:none;fill:black;font-family:sans-serif;font-size:13;" transform="matrix(1 0 0 1 776 1971)">Leading and trailing margins on the left and right side of each symbol</text>
  <text style="stroke:none;fill:black;font-family:sans-serif;font-size:13;" transform="matrix(1 0 0 1 776 1989)">can be adjusted by modifying the x-location of the margin guidelines.</text>
  <text style="stroke:none;fill:black;font-family:sans-serif;font-size:13;" transform="matrix(1 0 0 1 776 2007)">Modifications are automatically applied proportionally to all</text>
  <text style="stroke:none;fill:black;font-family:sans-serif;font-size:13;" transform="matrix(1 0 0 1 776 2025)">scales and weights.</text>
  <g transform="matrix(1 0 0 1 1289 1933)">
   <path d="M2.8418 1.86523L4.54102 3.57422Q5.18555 4.22852 5.90332 4.17969Q6.62109 4.13086 7.31445 3.35938L18.0078-8.42773L17.041-9.4043L6.42578 2.27539Q6.16211 2.57812 5.89355 2.61719Q5.625 2.65625 5.27344 2.30469L4.10156 1.14258Q3.75 0.791016 3.79395 0.522461Q3.83789 0.253906 4.14062-0.0195312L15.6152-10.8203L14.6387-11.7871L3.04688-0.898438Q2.30469-0.214844 2.25098 0.498047Q2.19727 1.21094 2.8418 1.86523ZM9.25781-16.3281Q8.94531-16.0254 8.90625-15.6348Q8.86719-15.2441 9.04297-14.9512Q9.21875-14.6777 9.55566-14.541Q9.89258-14.4043 10.3809-14.5215Q11.4746-14.7754 12.5977-14.7314Q13.7207-14.6875 14.7949-13.9844L14.209-12.5293Q13.9551-11.9043 14.0674-11.4404Q14.1797-10.9766 14.5801-10.5664L16.875-8.25195Q17.2363-7.88086 17.5781-7.82227Q17.9199-7.76367 18.3398-7.8418L19.4043-8.03711L20.0684-7.36328L20.0293-6.80664Q20-6.43555 20.1221-6.12305Q20.2441-5.81055 20.6055-5.44922L21.3672-4.70703Q21.7285-4.3457 22.1533-4.33105Q22.5781-4.31641 22.9297-4.66797L25.8398-7.58789Q26.1914-7.93945 26.1816-8.35449Q26.1719-8.76953 25.8105-9.13086L25.0391-9.89258Q24.6875-10.2539 24.3799-10.3857Q24.0723-10.5176 23.7109-10.4883L23.1348-10.4395L22.4902-11.0742L22.7344-12.1973Q22.832-12.6172 22.6953-12.9834Q22.5586-13.3496 22.1191-13.7891L19.9219-15.9766Q18.6719-17.2168 17.2607-17.8369Q15.8496-18.457 14.4189-18.4814Q12.9883-18.5059 11.665-17.959Q10.3418-17.4121 9.25781-16.3281ZM10.752-15.957Q11.6602-16.6211 12.7002-16.9043Q13.7402-17.1875 14.8047-17.085Q15.8691-16.9824 16.8701-16.5137Q17.8711-16.0449 18.7012-15.2051L21.1328-12.793Q21.3086-12.6172 21.3525-12.4512Q21.3965-12.2852 21.3379-12.0312L21.0156-10.5469L22.5195-9.0625L23.5059-9.12109Q23.6914-9.13086 23.7891-9.09668Q23.8867-9.0625 24.0332-8.91602L24.6094-8.33984L22.168-5.89844L21.5918-6.47461Q21.4453-6.62109 21.4062-6.71875Q21.3672-6.81641 21.377-7.01172L21.4453-7.98828L19.9512-9.47266L18.4277-9.21875Q18.1836-9.16992 18.042-9.2041Q17.9004-9.23828 17.7148-9.41406L15.7129-11.416Q15.5176-11.5918 15.4932-11.7529Q15.4688-11.9141 15.5859-12.1875L16.4648-14.2773Q15.293-15.3711 13.8281-15.791Q12.3633-16.2109 10.8398-15.7617Q10.7227-15.7324 10.6885-15.8057Q10.6543-15.8789 10.752-15.957Z"/>
  </g>
  <text style="stroke:none;fill:black;font-family:sans-serif;font-size:13;font-weight:bold;" transform="matrix(1 0 0 1 1289 1953)">Exporting</text>
  <text style="stroke:none;fill:black;font-family:sans-serif;font-size:13;" transform="matrix(1 0 0 1 1289 1971)">Symbols should be outlined when exporting to ensure the</text>
  <text style="stroke:none;fill:black;font-family:sans-serif;font-size:13;" transform="matrix(1 0 0 1 1289 1989)">design is preserved when submitting to Xcode.</text>
  <text id="template-version" style="stroke:none;fill:black;font-family:sans-serif;font-size:13;text-anchor:end;" transform="matrix(1 0 0 1 3036 1933)">Template v.3.0</text>
  <text style="stroke:none;fill:black;font-family:sans-serif;font-size:13;text-anchor:end;" transform="matrix(1 0 0 1 3036 1951)">Requires Xcode 13 or greater</text>
  <text id="descriptive-name" style="stroke:none;fill:black;font-family:sans-serif;font-size:13;text-anchor:end;" transform="matrix(1 0 0 1 3036 1969)">Generated from custom.square.grid.2x2</text>
  <text style="stroke:none;fill:black;font-family:sans-serif;font-size:13;text-anchor:end;" transform="matrix(1 0 0 1 3036 1987)">Typeset at 100 points</text>
  <text style="stroke:none;fill:black;font-family:sans-serif;font-size:13;" transform="matrix(1 0 0 1 263 726)">Small</text>
  <text style="stroke:none;fill:black;font-family:sans-serif;font-size:13;" transform="matrix(1 0 0 1 263 1156)">Medium</text>
  <text style="stroke:none;fill:black;font-family:sans-serif;font-size:13;" transform="matrix(1 0 0 1 263 1586)">Large</text>
 </g>
 <g id="Guides">
  <g id="H-reference" style="fill:#27AAE1;stroke:none;" transform="matrix(1 0 0 1 339 696)">
   <path d="M0.993347 0L3.6377 0L29.3282-67.1326L30.0301-67.1326L30.0301-70.459L28.1227-70.459ZM11.6882-24.4797L46.9818-24.4797L46.2311-26.7288L12.4382-26.7288ZM55.1193 0L57.7637 0L30.6381-70.459L29.4327-70.459L29.4327-67.1326Z"/>
  </g>
  <line id="Baseline-S" style="fill:none;stroke:#27AAE1;opacity:1;stroke-width:0.5;" x1="263" x2="3036" y1="696" y2="696"/>
  <line id="Capline-S" style="fill:none;stroke:#27AAE1;opacity:1;stroke-width:0.5;" x1="263" x2="3036" y1="625.541" y2="625.541"/>
  <g id="H-reference" style="fill:#27AAE1;stroke:none;" transform="matrix(1 0 0 1 339 1126)">
   <path d="M0.993347 0L3.6377 0L29.3282-67.1326L30.0301-67.1326L30.0301-70.459L28.1227-70.459ZM11.6882-24.4797L46.9818-24.4797L46.2311-26.7288L12.4382-26.7288ZM55.1193 0L57.7637 0L30.6381-70.459L29.4327-70.459L29.4327-67.1326Z"/>
  </g>
  <line id="Baseline-M" style="fill:none;stroke:#27AAE1;opacity:1;stroke-width:0.5;" x1="263" x2="3036" y1="1126" y2="1126"/>
  <line id="Capline-M" style="fill:none;stroke:#27AAE1;opacity:1;stroke-width:0.5;" x1="263" x2="3036" y1="1055.54" y2="1055.54"/>
  <g id="H-reference" style="fill:#27AAE1;stroke:none;" transform="matrix(1 0 0 1 339 1556)">
   <path d="M0.993347 0L3.6377 0L29.3282-67.1326L30.0301-67.1326L30.0301-70.459L28.1227-70.459ZM11.6882-24.4797L46.9818-24.4797L46.2311-26.7288L12.4382-26.7288ZM55.1193 0L57.7637 0L30.6381-70.459L29.4327-70.459L29.4327-67.1326Z"/>
  </g>
  <line id="Baseline-L" style="fill:none;stroke:#27AAE1;opacity:1;stroke-width:0.5;" x1="263" x2="3036" y1="1556" y2="1556"/>
  <line id="Capline-L" style="fill:none;stroke:#27AAE1;opacity:1;stroke-width:0.5;" x1="263" x2="3036" y1="1485.54" y2="1485.54"/>
  <line id="left-margin-Regular-M" style="fill:none;stroke:#00AEEF;stroke-width:0.5;opacity:1.0;" x1="1392.46" x2="1392.46" y1="1030.78" y2="1150.12"/>
  <line id="right-margin-Regular-M" style="fill:none;stroke:#00AEEF;stroke-width:0.5;opacity:1.0;" x1="1507.23" x2="1507.23" y1="1030.78" y2="1150.12"/>
 </g>
 <g id="Symbols">
  <g id="Black-L" transform="matrix(1 0 0 1 2855.72 1556)">
   <path d="M34.838-39.0968L55.0106-39.0968Q64.6195-39.0968 69.1921-43.6873Q73.7647-48.2778 73.7647-57.9342L73.7647-77.9611Q73.7647-87.6176 69.1921-92.208Q64.6195-96.7983 55.0106-96.7983L34.838-96.7983Q25.2292-96.7983 20.6566-92.208Q16.084-87.6176 16.084-77.9611L16.084-57.9342Q16.084-48.2778 20.6566-43.6873Q25.2292-39.0968 34.838-39.0968ZM34.7444-54.6147Q31.581-54.6147 31.581-57.8198L31.581-78.0962Q31.581-81.2806 34.7444-81.2806L55.0835-81.2806Q58.2677-81.2806 58.2677-78.0962L58.2677-57.8198Q58.2677-54.6147 55.0835-54.6147ZM100.358-39.0968L120.53-39.0968Q130.16-39.0968 134.722-43.6873Q139.284-48.2778 139.284-57.9342L139.284-77.9611Q139.284-87.6176 134.722-92.208Q130.16-96.7983 120.53-96.7983L100.358-96.7983Q90.749-96.7983 86.1763-92.208Q81.6037-87.6176 81.6037-77.9611L81.6037-57.9342Q81.6037-48.2778 86.1763-43.6873Q90.749-39.0968 100.358-39.0968ZM100.285-54.6147Q97.1007-54.6147 97.1007-57.8198L97.1007-78.0962Q97.1007-81.2806 100.285-81.2806L120.624-81.2806Q123.787-81.2806 123.787-78.0962L123.787-57.8198Q123.787-54.6147 120.624-54.6147ZM34.838 26.4229L55.0106 26.4229Q64.6195 26.4229 69.1921 21.8429Q73.7647 17.2628 73.7647 7.58552L73.7647-12.4413Q73.7647-22.0978 69.1921-26.6778Q64.6195-31.2579 55.0106-31.2579L34.838-31.2579Q25.2292-31.2579 20.6566-26.6778Q16.084-22.0978 16.084-12.4413L16.084 7.58552Q16.084 17.2628 20.6566 21.8429Q25.2292 26.4229 34.838 26.4229ZM34.7444 10.905Q31.581 10.905 31.581 7.72077L31.581-12.5558Q31.581-15.7609 34.7444-15.7609L55.0835-15.7609Q58.2677-15.7609 58.2677-12.5558L58.2677 7.72077Q58.2677 10.905 55.0835 10.905ZM100.358 26.4229L120.53 26.4229Q130.16 26.4229 134.722 21.8429Q139.284 17.2628 139.284 7.58552L139.284-12.4413Q139.284-22.0978 134.722-26.6778Q130.16-31.2579 120.53-31.2579L100.358-31.2579Q90.749-31.2579 86.1763-26.6778Q81.6037-22.0978 81.6037-12.4413L81.6037 7.58552Q81.6037 17.2628 86.1763 21.8429Q90.749 26.4229 100.358 26.4229ZM100.285 10.905Q97.1007 10.905 97.1007 7.72077L97.1007-12.5558Q97.1007-15.7609 100.285-15.7609L120.624-15.7609Q123.787-15.7609 123.787-12.5558L123.787 7.72077Q123.787 10.905 120.624 10.905Z"/>
  </g>
  <g id="Heavy-L" transform="matrix(1 0 0 1 2559.92 1556)">
   <path d="M33.1715-39.4078L55.4413-39.4078Q64.1552-39.4078 68.342-43.6109Q72.5288-47.8139 72.5288-56.6162L72.5288-78.6746Q72.5288-87.4769 68.342-91.6799Q64.1552-95.8829 55.4413-95.8829L33.1715-95.8829Q24.4577-95.8829 20.2708-91.6799Q16.084-87.4769 16.084-78.6746L16.084-56.6162Q16.084-47.8139 20.2708-43.6109Q24.4577-39.4078 33.1715-39.4078ZM33.1237-53.2413Q29.8873-53.2413 29.8873-56.5381L29.8873-78.7828Q29.8873-82.0494 33.1237-82.0494L55.459-82.0494Q58.7255-82.0494 58.7255-78.7828L58.7255-56.5381Q58.7255-53.2413 55.459-53.2413ZM98.0956-39.4078L120.365-39.4078Q129.109-39.4078 133.281-43.6109Q137.453-47.8139 137.453-56.6162L137.453-78.6746Q137.453-87.4769 133.281-91.6799Q129.109-95.8829 120.365-95.8829L98.0956-95.8829Q89.3818-95.8829 85.1949-91.6799Q81.0081-87.4769 81.0081-78.6746L81.0081-56.6162Q81.0081-47.8139 85.1949-43.6109Q89.3818-39.4078 98.0956-39.4078ZM98.0779-53.2413Q94.8114-53.2413 94.8114-56.5381L94.8114-78.7828Q94.8114-82.0494 98.0779-82.0494L120.413-82.0494Q123.65-82.0494 123.65-78.7828L123.65-56.5381Q123.65-53.2413 120.413-53.2413ZM33.1715 25.5162L55.4413 25.5162Q64.1552 25.5162 68.342 21.3283Q72.5288 17.1404 72.5288 8.30788L72.5288-13.7506Q72.5288-22.5528 68.342-26.7407Q64.1552-30.9286 55.4413-30.9286L33.1715-30.9286Q24.4577-30.9286 20.2708-26.7407Q16.084-22.5528 16.084-13.7506L16.084 8.30788Q16.084 17.1404 20.2708 21.3283Q24.4577 25.5162 33.1715 25.5162ZM33.1237 11.6827Q29.8873 11.6827 29.8873 8.41614L29.8873-13.8286Q29.8873-17.1254 33.1237-17.1254L55.459-17.1254Q58.7255-17.1254 58.7255-13.8286L58.7255 8.41614Q58.7255 11.6827 55.459 11.6827ZM98.0956 25.5162L120.365 25.5162Q129.109 25.5162 133.281 21.3283Q137.453 17.1404 137.453 8.30788L137.453-13.7506Q137.453-22.5528 133.281-26.7407Q129.109-30.9286 120.365-30.9286L98.0956-30.9286Q89.3818-30.9286 85.1949-26.7407Q81.0081-22.5528 81.0081-13.7506L81.0081 8.30788Q81.0081 17.1404 85.1949 21.3283Q89.3818 25.5162 98.0956 25.5162ZM98.0779 11.6827Q94.8114 11.6827 94.8114 8.41614L94.8114-13.8286Q94.8114-17.1254 98.0779-17.1254L120.413-17.1254Q123.65-17.1254 123.65-13.8286L123.65 8.41614Q123.65 11.6827 120.413 11.6827Z"/>
  </g>
  <g id="Bold-L" transform="matrix(1 0 0 1 2264.35 1556)">
   <path d="M31.1492-39.7771L55.9418-39.7771Q63.5715-39.7771 67.2893-43.5Q71.0071-47.2228 71.0071-54.9944L71.0071-79.521Q71.0071-87.2928 67.2893-91.0156Q63.5715-94.7384 55.9418-94.7384L31.1492-94.7384Q23.5196-94.7384 19.8018-91.0156Q16.084-87.2928 16.084-79.521L16.084-54.9944Q16.084-47.2228 19.8018-43.5Q23.5196-39.7771 31.1492-39.7771ZM31.1554-51.4909Q27.7598-51.4909 27.7598-54.9625L27.7598-79.591Q27.7598-83.0244 31.1554-83.0244L55.8978-83.0244Q59.3313-83.0244 59.3313-79.591L59.3313-54.9625Q59.3313-51.4909 55.8978-51.4909ZM95.3134-39.7771L120.106-39.7771Q127.773-39.7771 131.472-43.5Q135.171-47.2228 135.171-54.9944L135.171-79.521Q135.171-87.2928 131.472-91.0156Q127.773-94.7384 120.106-94.7384L95.3134-94.7384Q87.6837-94.7384 83.9658-91.0156Q80.2481-87.2928 80.2481-79.521L80.2481-54.9944Q80.2481-47.2228 83.9658-43.5Q87.6837-39.7771 95.3134-39.7771ZM95.3574-51.4909Q91.9239-51.4909 91.9239-54.9625L91.9239-79.591Q91.9239-83.0244 95.3574-83.0244L120.1-83.0244Q123.495-83.0244 123.495-79.591L123.495-54.9625Q123.495-51.4909 120.1-51.4909ZM31.1492 24.3869L55.9418 24.3869Q63.5715 24.3869 67.2893 20.6831Q71.0071 16.9792 71.0071 9.16947L71.0071-15.3571Q71.0071-23.1288 67.2893-26.8325Q63.5715-30.5362 55.9418-30.5362L31.1492-30.5362Q23.5196-30.5362 19.8018-26.8325Q16.084-23.1288 16.084-15.3571L16.084 9.16947Q16.084 16.9792 19.8018 20.6831Q23.5196 24.3869 31.1492 24.3869ZM31.1554 12.673Q27.7598 12.673 27.7598 9.23953L27.7598-15.3888Q27.7598-18.8606 31.1554-18.8606L55.8978-18.8606Q59.3313-18.8606 59.3313-15.3888L59.3313 9.23953Q59.3313 12.673 55.8978 12.673ZM95.3134 24.3869L120.106 24.3869Q127.773 24.3869 131.472 20.6831Q135.171 16.9792 135.171 9.16947L135.171-15.3571Q135.171-23.1288 131.472-26.8325Q127.773-30.5362 120.106-30.5362L95.3134-30.5362Q87.6837-30.5362 83.9658-26.8325Q80.2481-23.1288 80.2481-15.3571L80.2481 9.16947Q80.2481 16.9792 83.9658 20.6831Q87.6837 24.3869 95.3134 24.3869ZM95.3574 12.673Q91.9239 12.673 91.9239 9.23953L91.9239-15.3888Q91.9239-18.8606 95.3574-18.8606L120.1-18.8606Q123.495-18.8606 123.495-15.3888L123.495 9.23953Q123.495 12.673 120.1 12.673Z"/>
  </g>
  <g id="Semibold-L" transform="matrix(1 0 0 1 1968.43 1556)">
   <path d="M29.7551-40.0317L56.2869-40.0317Q63.1692-40.0317 66.5636-43.4235Q69.958-46.8152 69.958-53.8764L69.958-80.1044Q69.958-87.1659 66.5636-90.5576Q63.1692-93.9493 56.2869-93.9493L29.7551-93.9493Q22.8729-93.9493 19.4785-90.5576Q16.084-87.1659 16.084-80.1044L16.084-53.8764Q16.084-46.8152 19.4785-43.4235Q22.8729-40.0317 29.7551-40.0317ZM29.7985-50.2841Q26.2931-50.2841 26.2931-53.8762L26.2931-80.1481Q26.2931-83.6967 29.7985-83.6967L56.2004-83.6967Q59.7489-83.6967 59.7489-80.1481L59.7489-53.8762Q59.7489-50.2841 56.2004-50.2841ZM93.3953-40.0317L119.927-40.0317Q126.852-40.0317 130.225-43.4235Q133.598-46.8152 133.598-53.8764L133.598-80.1044Q133.598-87.1659 130.225-90.5576Q126.852-93.9493 119.927-93.9493L93.3953-93.9493Q86.5131-93.9493 83.1186-90.5576Q79.7241-87.1659 79.7241-80.1044L79.7241-53.8764Q79.7241-46.8152 83.1186-43.4235Q86.5131-40.0317 93.3953-40.0317ZM93.4818-50.2841Q89.9332-50.2841 89.9332-53.8762L89.9332-80.1481Q89.9332-83.6967 93.4818-83.6967L119.884-83.6967Q123.389-83.6967 123.389-80.1481L123.389-53.8762Q123.389-50.2841 119.884-50.2841ZM29.7551 23.6084L56.2869 23.6084Q63.1692 23.6084 66.5636 20.2383Q69.958 16.8682 69.958 9.76344L69.958-16.4646Q69.958-23.5258 66.5636-26.8957Q63.1692-30.2657 56.2869-30.2657L29.7551-30.2657Q22.8729-30.2657 19.4785-26.8957Q16.084-23.5258 16.084-16.4646L16.084 9.76344Q16.084 16.8682 19.4785 20.2383Q22.8729 23.6084 29.7551 23.6084ZM29.7985 13.3557Q26.2931 13.3557 26.2931 9.80716L26.2931-16.4645Q26.2931-20.0569 29.7985-20.0569L56.2004-20.0569Q59.7489-20.0569 59.7489-16.4645L59.7489 9.80716Q59.7489 13.3557 56.2004 13.3557ZM93.3953 23.6084L119.927 23.6084Q126.852 23.6084 130.225 20.2383Q133.598 16.8682 133.598 9.76344L133.598-16.4646Q133.598-23.5258 130.225-26.8957Q126.852-30.2657 119.927-30.2657L93.3953-30.2657Q86.5131-30.2657 83.1186-26.8957Q79.7241-23.5258 79.7241-16.4646L79.7241 9.76344Q79.7241 16.8682 83.1186 20.2383Q86.5131 23.6084 93.3953 23.6084ZM93.4818 13.3557Q89.9332 13.3557 89.9332 9.80716L89.9332-16.4645Q89.9332-20.0569 93.4818-20.0569L119.884-20.0569Q123.389-20.0569 123.389-16.4645L123.389 9.80716Q123.389 13.3557 119.884 13.3557Z"/>
  </g>
  <g id="Medium-L" transform="matrix(1 0 0 1 1672.31 1556)">
   <path d="M28.698-40.2247L56.5485-40.2247Q62.8641-40.2247 66.0133-43.3655Q69.1626-46.5062 69.1626-53.0287L69.1626-80.5469Q69.1626-87.0697 66.0133-90.2104Q62.8641-93.3511 56.5485-93.3511L28.698-93.3511Q22.3826-93.3511 19.2333-90.2104Q16.084-87.0697 16.084-80.5469L16.084-53.0287Q16.084-46.5062 19.2333-43.3655Q22.3826-40.2247 28.698-40.2247ZM28.7696-49.3691Q25.1809-49.3691 25.1809-53.0526L25.1809-80.5706Q25.1809-84.2064 28.7696-84.2064L56.4298-84.2064Q60.0656-84.2064 60.0656-80.5706L60.0656-53.0526Q60.0656-49.3691 56.4298-49.3691ZM91.941-40.2247L119.791-40.2247Q126.154-40.2247 129.28-43.3655Q132.405-46.5062 132.405-53.0287L132.405-80.5469Q132.405-87.0697 129.28-90.2104Q126.154-93.3511 119.791-93.3511L91.941-93.3511Q85.6255-93.3511 82.4761-90.2104Q79.3268-87.0697 79.3268-80.5469L79.3268-53.0287Q79.3268-46.5062 82.4761-43.3655Q85.6255-40.2247 91.941-40.2247ZM92.0597-49.3691Q88.4239-49.3691 88.4239-53.0526L88.4239-80.5706Q88.4239-84.2064 92.0597-84.2064L119.72-84.2064Q123.308-84.2064 123.308-80.5706L123.308-53.0526Q123.308-49.3691 119.72-49.3691ZM28.698 23.0181L56.5485 23.0181Q62.8641 23.0181 66.0133 19.901Q69.1626 16.7839 69.1626 10.2138L69.1626-17.3043Q69.1626-23.8268 66.0133-26.9437Q62.8641-30.0606 56.5485-30.0606L28.698-30.0606Q22.3826-30.0606 19.2333-26.9437Q16.084-23.8268 16.084-17.3043L16.084 10.2138Q16.084 16.7839 19.2333 19.901Q22.3826 23.0181 28.698 23.0181ZM28.7696 13.8734Q25.1809 13.8734 25.1809 10.2376L25.1809-17.2801Q25.1809-20.964 28.7696-20.964L56.4298-20.964Q60.0656-20.964 60.0656-17.2801L60.0656 10.2376Q60.0656 13.8734 56.4298 13.8734ZM91.941 23.0181L119.791 23.0181Q126.154 23.0181 129.28 19.901Q132.405 16.7839 132.405 10.2138L132.405-17.3043Q132.405-23.8268 129.28-26.9437Q126.154-30.0606 119.791-30.0606L91.941-30.0606Q85.6255-30.0606 82.4761-26.9437Q79.3268-23.8268 79.3268-17.3043L79.3268 10.2138Q79.3268 16.7839 82.4761 19.901Q85.6255 23.0181 91.941 23.0181ZM92.0597 13.8734Q88.4239 13.8734 88.4239 10.2376L88.4239-17.2801Q88.4239-20.964 92.0597-20.964L119.72-20.964Q123.308-20.964 123.308-17.2801L123.308 10.2376Q123.308 13.8734 119.72 13.8734Z"/>
  </g>
  <g id="Regular-L" transform="matrix(1 0 0 1 1376.38 1556)">
   <path d="M27.3193-40.4765L56.8898-40.4765Q62.4661-40.4765 65.2956-43.2899Q68.125-46.1032 68.125-51.923L68.125-81.1239Q68.125-86.9442 65.2956-89.7574Q62.4661-92.5707 56.8898-92.5707L27.3193-92.5707Q21.743-92.5707 18.9135-89.7574Q16.084-86.9442 16.084-81.1239L16.084-51.923Q16.084-46.1032 18.9135-43.2899Q21.743-40.4765 27.3193-40.4765ZM27.4276-48.1756Q23.7304-48.1756 23.7304-51.9783L23.7304-81.1216Q23.7304-84.8712 27.4276-84.8712L56.729-84.8712Q60.4786-84.8712 60.4786-81.1216L60.4786-51.9783Q60.4786-48.1756 56.729-48.1756ZM90.044-40.4765L119.614-40.4765Q125.243-40.4765 128.047-43.2899Q130.85-46.1032 130.85-51.923L130.85-81.1239Q130.85-86.9442 128.047-89.7574Q125.243-92.5707 119.614-92.5707L90.044-92.5707Q84.4677-92.5707 81.6381-89.7574Q78.8087-86.9442 78.8087-81.1239L78.8087-51.923Q78.8087-46.1032 81.6381-43.2899Q84.4677-40.4765 90.044-40.4765ZM90.2048-48.1756Q86.4551-48.1756 86.4551-51.9783L86.4551-81.1216Q86.4551-84.8712 90.2048-84.8712L119.506-84.8712Q123.203-84.8712 123.203-81.1216L123.203-51.9783Q123.203-48.1756 119.506-48.1756ZM27.3193 22.2481L56.8898 22.2481Q62.4661 22.2481 65.2956 19.4611Q68.125 16.6741 68.125 10.8013L68.125-18.3997Q68.125-24.2195 65.2956-27.0062Q62.4661-29.793 56.8898-29.793L27.3193-29.793Q21.743-29.793 18.9135-27.0062Q16.084-24.2195 16.084-18.3997L16.084 10.8013Q16.084 16.6741 18.9135 19.4611Q21.743 22.2481 27.3193 22.2481ZM27.4276 14.5486Q23.7304 14.5486 23.7304 10.799L23.7304-18.3439Q23.7304-22.1471 27.4276-22.1471L56.729-22.1471Q60.4786-22.1471 60.4786-18.3439L60.4786 10.799Q60.4786 14.5486 56.729 14.5486ZM90.044 22.2481L119.614 22.2481Q125.243 22.2481 128.047 19.4611Q130.85 16.6741 130.85 10.8013L130.85-18.3997Q130.85-24.2195 128.047-27.0062Q125.243-29.793 119.614-29.793L90.044-29.793Q84.4677-29.793 81.6381-27.0062Q78.8087-24.2195 78.8087-18.3997L78.8087 10.8013Q78.8087 16.6741 81.6381 19.4611Q84.4677 22.2481 90.044 22.2481ZM90.2048 14.5486Q86.4551 14.5486 86.4551 10.799L86.4551-18.3439Q86.4551-22.1471 90.2048-22.1471L119.506-22.1471Q123.203-22.1471 123.203-18.3439L123.203 10.799Q123.203 14.5486 119.506 14.5486Z"/>
  </g>
  <g id="Light-L" transform="matrix(1 0 0 1 1080.5 1556)">
   <path d="M26.1931-40.6292L57.0235-40.6292Q62.0082-40.6292 64.5704-43.1086Q67.1326-45.5878 67.1326-50.8732L67.1326-81.4673Q67.1326-86.7534 64.5704-89.2327Q62.0082-91.712 57.0235-91.712L26.1931-91.712Q21.2085-91.712 18.6462-89.2327Q16.084-86.7534 16.084-81.4673L16.084-50.8732Q16.084-45.5878 18.6462-43.1086Q21.2085-40.6292 26.1931-40.6292ZM26.3207-46.6486Q22.07-46.6486 22.07-50.9666L22.07-81.4079Q22.07-85.6918 26.3207-85.6918L56.8627-85.6918Q61.1465-85.6918 61.1465-81.4079L61.1465-50.9666Q61.1465-46.6486 56.8627-46.6486ZM88.2499-40.6292L119.08-40.6292Q124.098-40.6292 126.644-43.1086Q129.189-45.5878 129.189-50.8732L129.189-81.4673Q129.189-86.7534 126.644-89.2327Q124.098-91.712 119.08-91.712L88.2499-91.712Q83.2652-91.712 80.7029-89.2327Q78.1407-86.7534 78.1407-81.4673L78.1407-50.8732Q78.1407-45.5878 80.7029-43.1086Q83.2652-40.6292 88.2499-40.6292ZM88.4107-46.6486Q84.1268-46.6486 84.1268-50.9666L84.1268-81.4079Q84.1268-85.6918 88.4107-85.6918L118.953-85.6918Q123.203-85.6918 123.203-81.4079L123.203-50.9666Q123.203-46.6486 118.953-46.6486ZM26.1931 21.4275L57.0235 21.4275Q62.0082 21.4275 64.5704 18.9649Q67.1326 16.5022 67.1326 11.1828L67.1326-19.4114Q67.1326-24.6967 64.5704-27.1589Q62.0082-29.6211 57.0235-29.6211L26.1931-29.6211Q21.2085-29.6211 18.6462-27.1589Q16.084-24.6967 16.084-19.4114L16.084 11.1828Q16.084 16.5022 18.6462 18.9649Q21.2085 21.4275 26.1931 21.4275ZM26.3207 15.4073Q22.07 15.4073 22.07 11.1235L22.07-19.3171Q22.07-23.6359 26.3207-23.6359L56.8627-23.6359Q61.1465-23.6359 61.1465-19.3171L61.1465 11.1235Q61.1465 15.4073 56.8627 15.4073ZM88.2499 21.4275L119.08 21.4275Q124.098 21.4275 126.644 18.9649Q129.189 16.5022 129.189 11.1828L129.189-19.4114Q129.189-24.6967 126.644-27.1589Q124.098-29.6211 119.08-29.6211L88.2499-29.6211Q83.2652-29.6211 80.7029-27.1589Q78.1407-24.6967 78.1407-19.4114L78.1407 11.1828Q78.1407 16.5022 80.7029 18.9649Q83.2652 21.4275 88.2499 21.4275ZM88.4107 15.4073Q84.1268 15.4073 84.1268 11.1235L84.1268-19.3171Q84.1268-23.6359 88.4107-23.6359L118.953-23.6359Q123.203-23.6359 123.203-19.3171L123.203 11.1235Q123.203 15.4073 118.953 15.4073Z"/>
  </g>
  <g id="Thin-L" transform="matrix(1 0 0 1 784.884 1556)">
   <path d="M24.7037-40.8311L57.2004-40.8311Q61.4026-40.8311 63.6113-42.8688Q65.82-44.9063 65.82-49.4847L65.82-81.9215Q65.82-86.501 63.6113-88.5387Q61.4026-90.5762 57.2004-90.5762L24.7037-90.5762Q20.5016-90.5762 18.2927-88.5387Q16.084-86.501 16.084-81.9215L16.084-49.4847Q16.084-44.9063 18.2927-42.8688Q20.5016-40.8311 24.7037-40.8311ZM24.8567-44.6291Q19.8741-44.6291 19.8741-49.6286L19.8741-81.7866Q19.8741-86.7771 24.8567-86.7771L57.0395-86.7771Q62.0299-86.7771 62.0299-81.7866L62.0299-49.6286Q62.0299-44.6291 57.0395-44.6291ZM85.8772-40.8311L118.373-40.8311Q122.584-40.8311 124.789-42.8688Q126.993-44.9063 126.993-49.4847L126.993-81.9215Q126.993-86.501 124.789-88.5387Q122.584-90.5762 118.373-90.5762L85.8772-90.5762Q81.6748-90.5762 79.4661-88.5387Q77.2574-86.501 77.2574-81.9215L77.2574-49.4847Q77.2574-44.9063 79.4661-42.8688Q81.6748-40.8311 85.8772-40.8311ZM86.0379-44.6291Q81.0475-44.6291 81.0475-49.6286L81.0475-81.7866Q81.0475-86.7771 86.0379-86.7771L118.221-86.7771Q123.203-86.7771 123.203-81.7866L123.203-49.6286Q123.203-44.6291 118.221-44.6291ZM24.7037 20.3423L57.2004 20.3423Q61.4026 20.3423 63.6113 18.3086Q65.82 16.2749 65.82 11.6875L65.82-20.7494Q65.82-25.3277 63.6113-27.3608Q61.4026-29.3938 57.2004-29.3938L24.7037-29.3938Q20.5016-29.3938 18.2927-27.3608Q16.084-25.3277 16.084-20.7494L16.084 11.6875Q16.084 16.2749 18.2927 18.3086Q20.5016 20.3423 24.7037 20.3423ZM24.8567 16.5431Q19.8741 16.5431 19.8741 11.5527L19.8741-20.6042Q19.8741-25.6049 24.8567-25.6049L57.0395-25.6049Q62.0299-25.6049 62.0299-20.6042L62.0299 11.5527Q62.0299 16.5431 57.0395 16.5431ZM85.8772 20.3423L118.373 20.3423Q122.584 20.3423 124.789 18.3086Q126.993 16.2749 126.993 11.6875L126.993-20.7494Q126.993-25.3277 124.789-27.3608Q122.584-29.3938 118.373-29.3938L85.8772-29.3938Q81.6748-29.3938 79.4661-27.3608Q77.2574-25.3277 77.2574-20.7494L77.2574 11.6875Q77.2574 16.2749 79.4661 18.3086Q81.6748 20.3423 85.8772 20.3423ZM86.0379 16.5431Q81.0475 16.5431 81.0475 11.5527L81.0475-20.6042Q81.0475-25.6049 86.0379-25.6049L118.221-25.6049Q123.203-25.6049 123.203-20.6042L123.203 11.5527Q123.203 16.5431 118.221 16.5431Z"/>
  </g>
  <g id="Ultralight-L" transform="matrix(1 0 0 1 488.735 1556)">
   <path d="M23.9409-40.9345L57.291-40.9345Q61.0924-40.9345 63.1201-42.7459Q65.1478-44.5572 65.1478-48.7735L65.1478-82.1542Q65.1478-86.3717 63.1201-88.1832Q61.0924-89.9945 57.291-89.9945L23.9409-89.9945Q20.1395-89.9945 18.1116-88.1832Q16.084-86.3717 16.084-82.1542L16.084-48.7735Q16.084-44.5572 18.1116-42.7459Q20.1395-40.9345 23.9409-40.9345ZM24.1069-43.5947Q18.7493-43.5947 18.7493-48.9433L18.7493-81.9806Q18.7493-87.3329 24.1069-87.3329L57.1301-87.3329Q62.4824-87.3329 62.4824-81.9806L62.4824-48.9433Q62.4824-43.5947 57.1301-43.5947ZM84.6618-40.9345L118.01-40.9345Q121.808-40.9345 123.838-42.7459Q125.869-44.5572 125.869-48.7735L125.869-82.1542Q125.869-86.3717 123.838-88.1832Q121.808-89.9945 118.01-89.9945L84.6618-89.9945Q80.8602-89.9945 78.8326-88.1832Q76.8049-86.3717 76.8049-82.1542L76.8049-48.7735Q76.8049-44.5572 78.8326-42.7459Q80.8602-40.9345 84.6618-40.9345ZM84.8226-43.5947Q79.4703-43.5947 79.4703-48.9433L79.4703-81.9806Q79.4703-87.3329 84.8226-87.3329L117.846-87.3329Q123.203-87.3329 123.203-81.9806L123.203-48.9433Q123.203-43.5947 117.846-43.5947ZM23.9409 19.7864L57.291 19.7864Q61.0924 19.7864 63.1201 17.9725Q65.1478 16.1585 65.1478 11.946L65.1478-21.4347Q65.1478-25.651 63.1201-27.4642Q61.0924-29.2773 57.291-29.2773L23.9409-29.2773Q20.1395-29.2773 18.1116-27.4642Q16.084-25.651 16.084-21.4347L16.084 11.946Q16.084 16.1585 18.1116 17.9725Q20.1395 19.7864 23.9409 19.7864ZM24.1069 17.1248Q18.7493 17.1248 18.7493 11.7725L18.7493-21.2634Q18.7493-26.6135 24.1069-26.6135L57.1301-26.6135Q62.4824-26.6135 62.4824-21.2634L62.4824 11.7725Q62.4824 17.1248 57.1301 17.1248ZM84.6618 19.7864L118.01 19.7864Q121.808 19.7864 123.838 17.9725Q125.869 16.1585 125.869 11.946L125.869-21.4347Q125.869-25.651 123.838-27.4642Q121.808-29.2773 118.01-29.2773L84.6618-29.2773Q80.8602-29.2773 78.8326-27.4642Q76.8049-25.651 76.8049-21.4347L76.8049 11.946Q76.8049 16.1585 78.8326 17.9725Q80.8602 19.7864 84.6618 19.7864ZM84.8226 17.1248Q79.4703 17.1248 79.4703 11.7725L79.4703-21.2634Q79.4703-26.6135 84.8226-26.6135L117.846-26.6135Q123.203-26.6135 123.203-21.2634L123.203 11.7725Q123.203 17.1248 117.846 17.1248Z"/>
  </g>
  <g id="Black-M" transform="matrix(1 0 0 1 2872.54 1126)">
   <path d="M28.2702-37.9792L42.267-37.9792Q50.4005-37.9792 54.2384-41.8233Q58.0763-45.6675 58.0763-53.8105L58.0763-67.7689Q58.0763-75.9119 54.2384-79.756Q50.4005-83.6 42.267-83.6L28.2702-83.6Q20.1368-83.6 16.2988-79.756Q12.4609-75.9119 12.4609-67.7689L12.4609-53.8105Q12.4609-45.6675 16.2988-41.8233Q20.1368-37.9792 28.2702-37.9792ZM28.1609-51.2216Q25.6978-51.2216 25.6978-53.6957L25.6978-67.889Q25.6978-70.3578 28.1609-70.3578L42.3708-70.3578Q44.8394-70.3578 44.8394-67.889L44.8394-53.6957Q44.8394-51.2216 42.3708-51.2216ZM79.4526-37.9792L93.4493-37.9792Q101.588-37.9792 105.423-41.8233Q109.259-45.6675 109.259-53.8105L109.259-67.7689Q109.259-75.9119 105.423-79.756Q101.588-83.6 93.4493-83.6L79.4526-83.6Q71.3191-83.6 67.4812-79.756Q63.6432-75.9119 63.6432-67.7689L63.6432-53.8105Q63.6432-45.6675 67.4812-41.8233Q71.3191-37.9792 79.4526-37.9792ZM79.3487-51.2216Q76.8801-51.2216 76.8801-53.6957L76.8801-67.889Q76.8801-70.3578 79.3487-70.3578L93.5586-70.3578Q96.0218-70.3578 96.0218-67.889L96.0218-53.6957Q96.0218-51.2216 93.5586-51.2216ZM28.2702 13.2031L42.267 13.2031Q50.4005 13.2031 54.2384 9.36173Q58.0763 5.52037 58.0763-2.62814L58.0763-16.5865Q58.0763-24.7295 54.2384-28.5709Q50.4005-32.4123 42.267-32.4123L28.2702-32.4123Q20.1368-32.4123 16.2988-28.5709Q12.4609-24.7295 12.4609-16.5865L12.4609-2.62814Q12.4609 5.52037 16.2988 9.36173Q20.1368 13.2031 28.2702 13.2031ZM28.1609-0.039256Q25.6978-0.039256 25.6978-2.50789L25.6978-16.7013Q25.6978-19.1754 28.1609-19.1754L42.3708-19.1754Q44.8394-19.1754 44.8394-16.7013L44.8394-2.50789Q44.8394-0.039256 42.3708-0.039256ZM79.4526 13.2031L93.4493 13.2031Q101.588 13.2031 105.423 9.36173Q109.259 5.52037 109.259-2.62814L109.259-16.5865Q109.259-24.7295 105.423-28.5709Q101.588-32.4123 93.4493-32.4123L79.4526-32.4123Q71.3191-32.4123 67.4812-28.5709Q63.6432-24.7295 63.6432-16.5865L63.6432-2.62814Q63.6432 5.52037 67.4812 9.36173Q71.3191 13.2031 79.4526 13.2031ZM79.3487-0.039256Q76.8801-0.039256 76.8801-2.50789L76.8801-16.7013Q76.8801-19.1754 79.3487-19.1754L93.5586-19.1754Q96.0218-19.1754 96.0218-16.7013L96.0218-2.50789Q96.0218-0.039256 93.5586-0.039256Z"/>
  </g>
  <g id="Heavy-M" transform="matrix(1 0 0 1 2576.65 1126)">
   <path d="M26.7449-38.2691L42.6757-38.2691Q49.9888-38.2691 53.4742-41.7654Q56.9597-45.2616 56.9597-52.6188L56.9597-68.4347Q56.9597-75.792 53.4742-79.2882Q49.9888-82.7843 42.6757-82.7843L26.7449-82.7843Q19.4319-82.7843 15.9464-79.2882Q12.4609-75.792 12.4609-68.4347L12.4609-52.6188Q12.4609-45.2616 15.9464-41.7654Q19.4319-38.2691 26.7449-38.2691ZM26.6786-50.0199Q24.1952-50.0199 24.1952-52.5361L24.1952-68.5338Q24.1952-71.0336 26.6786-71.0336L42.7256-71.0336Q45.2254-71.0336 45.2254-68.5338L45.2254-52.5361Q45.2254-50.0199 42.7256-50.0199ZM77.4066-38.2691L93.3373-38.2691Q100.667-38.2691 104.144-41.7654Q107.621-45.2616 107.621-52.6188L107.621-68.4347Q107.621-75.792 104.144-79.2882Q100.667-82.7843 93.3373-82.7843L77.4066-82.7843Q70.0935-82.7843 66.608-79.2882Q63.1226-75.792 63.1226-68.4347L63.1226-52.6188Q63.1226-45.2616 66.608-41.7654Q70.0935-38.2691 77.4066-38.2691ZM77.3567-50.0199Q74.8569-50.0199 74.8569-52.5361L74.8569-68.5338Q74.8569-71.0336 77.3567-71.0336L93.4036-71.0336Q95.887-71.0336 95.887-68.5338L95.887-52.5361Q95.887-50.0199 93.4036-50.0199ZM26.7449 12.3925L42.6757 12.3925Q49.9888 12.3925 53.4742 8.90449Q56.9597 5.4165 56.9597-1.95718L56.9597-17.7731Q56.9597-25.1303 53.4742-28.6183Q49.9888-32.1063 42.6757-32.1063L26.7449-32.1063Q19.4319-32.1063 15.9464-28.6183Q12.4609-25.1303 12.4609-17.7731L12.4609-1.95718Q12.4609 5.4165 15.9464 8.90449Q19.4319 12.3925 26.7449 12.3925ZM26.6786 0.641724Q24.1952 0.641724 24.1952-1.85805L24.1952-17.8558Q24.1952-20.372 26.6786-20.372L42.7256-20.372Q45.2254-20.372 45.2254-17.8558L45.2254-1.85805Q45.2254 0.641724 42.7256 0.641724ZM77.4066 12.3925L93.3373 12.3925Q100.667 12.3925 104.144 8.90449Q107.621 5.4165 107.621-1.95718L107.621-17.7731Q107.621-25.1303 104.144-28.6183Q100.667-32.1063 93.3373-32.1063L77.4066-32.1063Q70.0935-32.1063 66.608-28.6183Q63.1226-25.1303 63.1226-17.7731L63.1226-1.95718Q63.1226 5.4165 66.608 8.90449Q70.0935 12.3925 77.4066 12.3925ZM77.3567 0.641724Q74.8569 0.641724 74.8569-1.85805L74.8569-17.8558Q74.8569-20.372 77.3567-20.372L93.4036-20.372Q95.887-20.372 95.887-17.8558L95.887-1.85805Q95.887 0.641724 93.4036 0.641724Z"/>
  </g>
  <g id="Bold-M" transform="matrix(1 0 0 1 2280.85 1126)">
   <path d="M25.0387-38.5935L43.1329-38.5935Q49.5283-38.5935 52.6194-41.7005Q55.7106-44.8075 55.7106-51.2858L55.7106-69.1795Q55.7106-75.6579 52.6194-78.7648Q49.5283-81.8718 43.1329-81.8718L25.0387-81.8718Q18.6433-81.8718 15.5521-78.7648Q12.4609-75.6579 12.4609-69.1795L12.4609-51.2858Q12.4609-44.8075 15.5521-41.7005Q18.6433-38.5935 25.0387-38.5935ZM25.0205-48.6756Q22.5144-48.6756 22.5144-51.2389L22.5144-69.255Q22.5144-71.7896 25.0205-71.7896L43.1225-71.7896Q45.6571-71.7896 45.6571-69.255L45.6571-51.2389Q45.6571-48.6756 43.1225-48.6756ZM75.1179-38.5935L93.212-38.5935Q99.636-38.5935 102.713-41.7005Q105.79-44.8075 105.79-51.2858L105.79-69.1795Q105.79-75.6579 102.713-78.7648Q99.636-81.8718 93.212-81.8718L75.1179-81.8718Q68.7225-81.8718 65.6313-78.7648Q62.5401-75.6579 62.5401-69.1795L62.5401-51.2858Q62.5401-44.8075 65.6313-41.7005Q68.7225-38.5935 75.1179-38.5935ZM75.1283-48.6756Q72.5936-48.6756 72.5936-51.2389L72.5936-69.255Q72.5936-71.7896 75.1283-71.7896L93.2302-71.7896Q95.7363-71.7896 95.7363-69.255L95.7363-51.2389Q95.7363-48.6756 93.2302-48.6756ZM25.0387 11.4857L43.1329 11.4857Q49.5283 11.4857 52.6194 8.39299Q55.7106 5.3003 55.7106-1.20662L55.7106-19.1004Q55.7106-25.5787 52.6194-28.6713Q49.5283-31.764 43.1329-31.764L25.0387-31.764Q18.6433-31.764 15.5521-28.6713Q12.4609-25.5787 12.4609-19.1004L12.4609-1.20662Q12.4609 5.3003 15.5521 8.39299Q18.6433 11.4857 25.0387 11.4857ZM25.0205 1.4035Q22.5144 1.4035 22.5144-1.13112L22.5144-19.1472Q22.5144-21.7106 25.0205-21.7106L43.1225-21.7106Q45.6571-21.7106 45.6571-19.1472L45.6571-1.13112Q45.6571 1.4035 43.1225 1.4035ZM75.1179 11.4857L93.212 11.4857Q99.636 11.4857 102.713 8.39299Q105.79 5.3003 105.79-1.20662L105.79-19.1004Q105.79-25.5787 102.713-28.6713Q99.636-31.764 93.212-31.764L75.1179-31.764Q68.7225-31.764 65.6313-28.6713Q62.5401-25.5787 62.5401-19.1004L62.5401-1.20662Q62.5401 5.3003 65.6313 8.39299Q68.7225 11.4857 75.1179 11.4857ZM75.1283 1.4035Q72.5936 1.4035 72.5936-1.13112L72.5936-19.1472Q72.5936-21.7106 75.1283-21.7106L93.2302-21.7106Q95.7363-21.7106 95.7363-19.1472L95.7363-1.13112Q95.7363 1.4035 93.2302 1.4035Z"/>
  </g>
  <g id="Semibold-M" transform="matrix(1 0 0 1 1984.77 1126)">
   <path d="M23.8624-38.8171L43.448-38.8171Q49.2108-38.8171 52.0301-41.6558Q54.8495-44.4945 54.8495-50.3668L54.8495-69.693Q54.8495-75.5654 52.0301-78.4041Q49.2108-81.2427 43.448-81.2427L23.8624-81.2427Q18.0997-81.2427 15.2803-78.4041Q12.4609-75.5654 12.4609-69.693L12.4609-50.3668Q12.4609-44.4945 15.2803-41.6558Q18.0997-38.8171 23.8624-38.8171ZM23.8774-47.7489Q21.3557-47.7489 21.3557-50.3446L21.3557-69.7522Q21.3557-72.3108 23.8774-72.3108L43.3961-72.3108Q45.9547-72.3108 45.9547-69.7522L45.9547-50.3446Q45.9547-47.7489 43.3961-47.7489ZM73.54-38.8171L93.1256-38.8171Q98.9254-38.8171 101.726-41.6558Q104.527-44.4945 104.527-50.3668L104.527-69.693Q104.527-75.5654 101.726-78.4041Q98.9254-81.2427 93.1256-81.2427L73.54-81.2427Q67.7773-81.2427 64.9579-78.4041Q62.1386-75.5654 62.1386-69.693L62.1386-50.3668Q62.1386-44.4945 64.9579-41.6558Q67.7773-38.8171 73.54-38.8171ZM73.592-47.7489Q71.0334-47.7489 71.0334-50.3446L71.0334-69.7522Q71.0334-72.3108 73.592-72.3108L93.1107-72.3108Q95.6324-72.3108 95.6324-69.7522L95.6324-50.3446Q95.6324-47.7489 93.1107-47.7489ZM23.8624 10.8606L43.448 10.8606Q49.2108 10.8606 52.0301 8.04037Q54.8495 5.22019 54.8495-0.689189L54.8495-20.0155Q54.8495-25.8878 52.0301-28.7079Q49.2108-31.528 43.448-31.528L23.8624-31.528Q18.0997-31.528 15.2803-28.7079Q12.4609-25.8878 12.4609-20.0155L12.4609-0.689189Q12.4609 5.22019 15.2803 8.04037Q18.0997 10.8606 23.8624 10.8606ZM23.8774 1.92866Q21.3557 1.92866 21.3557-0.629975L21.3557-20.0375Q21.3557-22.6334 23.8774-22.6334L43.3961-22.6334Q45.9547-22.6334 45.9547-20.0375L45.9547-0.629975Q45.9547 1.92866 43.3961 1.92866ZM73.54 10.8606L93.1256 10.8606Q98.9254 10.8606 101.726 8.04037Q104.527 5.22019 104.527-0.689189L104.527-20.0155Q104.527-25.8878 101.726-28.7079Q98.9254-31.528 93.1256-31.528L73.54-31.528Q67.7773-31.528 64.9579-28.7079Q62.1386-25.8878 62.1386-20.0155L62.1386-0.689189Q62.1386 5.22019 64.9579 8.04037Q67.7773 10.8606 73.54 10.8606ZM73.592 1.92866Q71.0334 1.92866 71.0334-0.629975L71.0334-20.0375Q71.0334-22.6334 73.592-22.6334L93.1107-22.6334Q95.6324-22.6334 95.6324-20.0375L95.6324-0.629975Q95.6324 1.92866 93.1107 1.92866Z"/>
  </g>
  <g id="Medium-M" transform="matrix(1 0 0 1 1688.54 1126)">
   <path d="M22.9705-38.9866L43.687-38.9866Q48.9701-38.9866 51.5833-41.6219Q54.1965-44.2571 54.1965-49.6699L54.1965-70.0824Q54.1965-75.4953 51.5833-78.1305Q48.9701-80.7658 43.687-80.7658L22.9705-80.7658Q17.6875-80.7658 15.0742-78.1305Q12.4609-75.4953 12.4609-70.0824L12.4609-49.6699Q12.4609-44.2571 15.0742-41.6219Q17.6875-38.9866 22.9705-38.9866ZM23.0107-47.0462Q20.4771-47.0462 20.4771-49.6666L20.4771-70.1292Q20.4771-72.706 23.0107-72.706L43.6035-72.706Q46.1804-72.706 46.1804-70.1292L46.1804-49.6666Q46.1804-47.0462 43.6035-47.0462ZM72.3437-38.9866L93.0601-38.9866Q98.3866-38.9866 100.978-41.6219Q103.57-44.2571 103.57-49.6699L103.57-70.0824Q103.57-75.4953 100.978-78.1305Q98.3866-80.7658 93.0601-80.7658L72.3437-80.7658Q67.0607-80.7658 64.4474-78.1305Q61.8341-75.4953 61.8341-70.0824L61.8341-49.6699Q61.8341-44.2571 64.4474-41.6219Q67.0607-38.9866 72.3437-38.9866ZM72.4272-47.0462Q69.8503-47.0462 69.8503-49.6666L69.8503-70.1292Q69.8503-72.706 72.4272-72.706L93.0201-72.706Q95.5536-72.706 95.5536-70.1292L95.5536-49.6666Q95.5536-47.0462 93.0201-47.0462ZM22.9705 10.3865L43.687 10.3865Q48.9701 10.3865 51.5833 7.773Q54.1965 5.15945 54.1965-0.29685L54.1965-20.7093Q54.1965-26.1221 51.5833-28.7356Q48.9701-31.3491 43.687-31.3491L22.9705-31.3491Q17.6875-31.3491 15.0742-28.7356Q12.4609-26.1221 12.4609-20.7093L12.4609-0.29685Q12.4609 5.15945 15.0742 7.773Q17.6875 10.3865 22.9705 10.3865ZM23.0107 2.32686Q20.4771 2.32686 20.4771-0.249986L20.4771-20.7125Q20.4771-23.3331 23.0107-23.3331L43.6035-23.3331Q46.1804-23.3331 46.1804-20.7125L46.1804-0.249986Q46.1804 2.32686 43.6035 2.32686ZM72.3437 10.3865L93.0601 10.3865Q98.3866 10.3865 100.978 7.773Q103.57 5.15945 103.57-0.29685L103.57-20.7093Q103.57-26.1221 100.978-28.7356Q98.3866-31.3491 93.0601-31.3491L72.3437-31.3491Q67.0607-31.3491 64.4474-28.7356Q61.8341-26.1221 61.8341-20.7093L61.8341-0.29685Q61.8341 5.15945 64.4474 7.773Q67.0607 10.3865 72.3437 10.3865ZM72.4272 2.32686Q69.8503 2.32686 69.8503-0.249986L69.8503-20.7125Q69.8503-23.3331 72.4272-23.3331L93.0201-23.3331Q95.5536-23.3331 95.5536-20.7125L95.5536-0.249986Q95.5536 2.32686 93.0201 2.32686Z"/>
  </g>
  <g id="Regular-M" transform="matrix(1 0 0 1 1392.46 1126)">
   <path d="M21.8071-39.2077L43.9987-39.2077Q48.6561-39.2077 51.0005-41.5776Q53.3449-43.9475 53.3449-48.761L53.3449-70.5902Q53.3449-75.4039 51.0005-77.7737Q48.6561-80.1436 43.9987-80.1436L21.8071-80.1436Q17.1498-80.1436 14.8054-77.7737Q12.4609-75.4039 12.4609-70.5902L12.4609-48.761Q12.4609-43.9475 14.8054-41.5776Q17.1498-39.2077 21.8071-39.2077ZM21.8801-46.1296Q19.3311-46.1296 19.3311-48.7821L19.3311-70.621Q19.3311-73.2215 21.8801-73.2215L43.8741-73.2215Q46.4747-73.2215 46.4747-70.621L46.4747-48.7821Q46.4747-46.1296 43.8741-46.1296ZM70.7832-39.2077L92.9746-39.2077Q97.6838-39.2077 100.002-41.5776Q102.321-43.9475 102.321-48.761L102.321-70.5902Q102.321-75.4039 100.002-77.7737Q97.6838-80.1436 92.9746-80.1436L70.7832-80.1436Q66.1259-80.1436 63.7814-77.7737Q61.437-75.4039 61.437-70.5902L61.437-48.761Q61.437-43.9475 63.7814-41.5776Q66.1259-39.2077 70.7832-39.2077ZM70.9078-46.1296Q68.3072-46.1296 68.3072-48.7821L68.3072-70.621Q68.3072-73.2215 70.9078-73.2215L92.9019-73.2215Q95.4508-73.2215 95.4508-70.621L95.4508-48.7821Q95.4508-46.1296 92.9019-46.1296ZM21.8071 9.76828L43.9987 9.76828Q48.6561 9.76828 51.0005 7.42426Q53.3449 5.08022 53.3449 0.214898L53.3449-21.6143Q53.3449-26.4278 51.0005-28.7717Q48.6561-31.1157 43.9987-31.1157L21.8071-31.1157Q17.1498-31.1157 14.8054-28.7717Q12.4609-26.4278 12.4609-21.6143L12.4609 0.214898Q12.4609 5.08022 14.8054 7.42426Q17.1498 9.76828 21.8071 9.76828ZM21.8801 2.84625Q19.3311 2.84625 19.3311 0.245651L19.3311-21.5931Q19.3311-24.2457 21.8801-24.2457L43.8741-24.2457Q46.4747-24.2457 46.4747-21.5931L46.4747 0.245651Q46.4747 2.84625 43.8741 2.84625ZM70.7832 9.76828L92.9746 9.76828Q97.6838 9.76828 100.002 7.42426Q102.321 5.08022 102.321 0.214898L102.321-21.6143Q102.321-26.4278 100.002-28.7717Q97.6838-31.1157 92.9746-31.1157L70.7832-31.1157Q66.1259-31.1157 63.7814-28.7717Q61.437-26.4278 61.437-21.6143L61.437 0.214898Q61.437 5.08022 63.7814 7.42426Q66.1259 9.76828 70.7832 9.76828ZM70.9078 2.84625Q68.3072 2.84625 68.3072 0.245651L68.3072-21.5931Q68.3072-24.2457 70.9078-24.2457L92.9019-24.2457Q95.4508-24.2457 95.4508-21.5931L95.4508 0.245651Q95.4508 2.84625 92.9019 2.84625Z"/>
  </g>
  <g id="Light-M" transform="matrix(1 0 0 1 1096.49 1126)">
   <path d="M20.7975-39.3446L44.1186-39.3446Q48.2455-39.3446 50.3503-41.4151Q52.4551-43.4855 52.4551-47.8198L52.4551-70.8981Q52.4551-75.2328 50.3503-77.3032Q48.2455-79.3737 44.1186-79.3737L20.7975-79.3737Q16.6706-79.3737 14.5658-77.3032Q12.4609-75.2328 12.4609-70.8981L12.4609-47.8198Q12.4609-43.4855 14.5658-41.4151Q16.6706-39.3446 20.7975-39.3446ZM20.8877-44.7606Q17.8425-44.7606 17.8425-47.8751L17.8425-70.8777Q17.8425-73.9572 20.8877-73.9572L43.994-73.9572Q47.0735-73.9572 47.0735-70.8777L47.0735-47.8751Q47.0735-44.7606 43.994-44.7606ZM69.1747-39.3446L92.4954-39.3446Q96.6572-39.3446 98.7448-41.4151Q100.832-43.4855 100.832-47.8198L100.832-70.8981Q100.832-75.2328 98.7448-77.3032Q96.6572-79.3737 92.4954-79.3737L69.1747-79.3737Q65.0478-79.3737 62.943-77.3032Q60.8382-75.2328 60.8382-70.8981L60.8382-47.8198Q60.8382-43.4855 62.943-41.4151Q65.0478-39.3446 69.1747-39.3446ZM69.2993-44.7606Q66.2197-44.7606 66.2197-47.8751L66.2197-70.8777Q66.2197-73.9572 69.2993-73.9572L92.4056-73.9572Q95.4508-73.9572 95.4508-70.8777L95.4508-47.8751Q95.4508-44.7606 92.4056-44.7606ZM20.7975 9.03261L44.1186 9.03261Q48.2455 9.03261 50.3503 6.97937Q52.4551 4.92613 52.4551 0.557005L52.4551-22.5214Q52.4551-26.8556 50.3503-28.9086Q48.2455-30.9616 44.1186-30.9616L20.7975-30.9616Q16.6706-30.9616 14.5658-28.9086Q12.4609-26.8556 12.4609-22.5214L12.4609 0.557005Q12.4609 4.92613 14.5658 6.97937Q16.6706 9.03261 20.7975 9.03261ZM20.8877 3.61614Q17.8425 3.61614 17.8425 0.536588L17.8425-22.4656Q17.8425-25.5805 20.8877-25.5805L43.994-25.5805Q47.0735-25.5805 47.0735-22.4656L47.0735 0.536588Q47.0735 3.61614 43.994 3.61614ZM69.1747 9.03261L92.4954 9.03261Q96.6572 9.03261 98.7448 6.97937Q100.832 4.92613 100.832 0.557005L100.832-22.5214Q100.832-26.8556 98.7448-28.9086Q96.6572-30.9616 92.4954-30.9616L69.1747-30.9616Q65.0478-30.9616 62.943-28.9086Q60.8382-26.8556 60.8382-22.5214L60.8382 0.557005Q60.8382 4.92613 62.943 6.97937Q65.0478 9.03261 69.1747 9.03261ZM69.2993 3.61614Q66.2197 3.61614 66.2197 0.536588L66.2197-22.4656Q66.2197-25.5805 69.2993-25.5805L92.4056-25.5805Q95.4508-25.5805 95.4508-22.4656L95.4508 0.536588Q95.4508 3.61614 92.4056 3.61614Z"/>
  </g>
  <g id="Thin-M" transform="matrix(1 0 0 1 800.76 1126)">
   <path d="M19.4621-39.5256L44.2772-39.5256Q47.7026-39.5256 49.4904-41.2001Q51.2783-42.8745 51.2783-46.5749L51.2783-71.3053Q51.2783-75.0065 49.4904-76.681Q47.7026-78.3554 44.2772-78.3554L19.4621-78.3554Q16.0368-78.3554 14.2488-76.681Q12.4609-75.0065 12.4609-71.3053L12.4609-46.5749Q12.4609-42.8745 14.2488-41.2001Q16.0368-39.5256 19.4621-39.5256ZM19.5752-42.95Q15.8737-42.95 15.8737-46.6755L15.8737-71.2172Q15.8737-74.9302 19.5752-74.9302L44.1525-74.9302Q47.8655-74.9302 47.8655-71.2172L47.8655-46.6755Q47.8655-42.95 44.1525-42.95ZM67.0474-39.5256L91.8616-39.5256Q95.2994-39.5256 97.0815-41.2001Q98.8636-42.8745 98.8636-46.5749L98.8636-71.3053Q98.8636-75.0065 97.0815-76.681Q95.2994-78.3554 91.8616-78.3554L67.0474-78.3554Q63.6219-78.3554 61.834-76.681Q60.0462-75.0065 60.0462-71.3053L60.0462-46.5749Q60.0462-42.8745 61.834-41.2001Q63.6219-39.5256 67.0474-39.5256ZM67.172-42.95Q63.4589-42.95 63.4589-46.6755L63.4589-71.2172Q63.4589-74.9302 67.172-74.9302L91.7493-74.9302Q95.4508-74.9302 95.4508-71.2172L95.4508-46.6755Q95.4508-42.95 91.7493-42.95ZM19.4621 8.05962L44.2772 8.05962Q47.7026 8.05962 49.4904 6.39098Q51.2783 4.72233 51.2783 1.00947L51.2783-23.721Q51.2783-27.4214 49.4904-29.0896Q47.7026-30.7577 44.2772-30.7577L19.4621-30.7577Q16.0368-30.7577 14.2488-29.0896Q12.4609-27.4214 12.4609-23.721L12.4609 1.00947Q12.4609 4.72233 14.2488 6.39098Q16.0368 8.05962 19.4621 8.05962ZM19.5752 4.63437Q15.8737 4.63437 15.8737 0.921374L15.8737-23.6195Q15.8737-27.3459 19.5752-27.3459L44.1525-27.3459Q47.8655-27.3459 47.8655-23.6195L47.8655 0.921374Q47.8655 4.63437 44.1525 4.63437ZM67.0474 8.05962L91.8616 8.05962Q95.2994 8.05962 97.0815 6.39098Q98.8636 4.72233 98.8636 1.00947L98.8636-23.721Q98.8636-27.4214 97.0815-29.0896Q95.2994-30.7577 91.8616-30.7577L67.0474-30.7577Q63.6219-30.7577 61.834-29.0896Q60.0462-27.4214 60.0462-23.721L60.0462 1.00947Q60.0462 4.72233 61.834 6.39098Q63.6219 8.05962 67.0474 8.05962ZM67.172 4.63437Q63.4589 4.63437 63.4589 0.921374L63.4589-23.6195Q63.4589-27.3459 67.172-27.3459L91.7493-27.3459Q95.4508-27.3459 95.4508-23.6195L95.4508 0.921374Q95.4508 4.63437 91.7493 4.63437Z"/>
  </g>
  <g id="Ultralight-M" transform="matrix(1 0 0 1 504.553 1126)">
   <path d="M18.7782-39.6183L44.3584-39.6183Q47.4245-39.6183 49.05-41.09Q50.6756-42.5615 50.6756-45.9373L50.6756-71.5139Q50.6756-74.8907 49.05-76.3624Q47.4245-77.8339 44.3584-77.8339L18.7782-77.8339Q15.7122-77.8339 14.0865-76.3624Q12.4609-74.8907 12.4609-71.5139L12.4609-45.9373Q12.4609-42.5615 14.0865-41.09Q15.7122-39.6183 18.7782-39.6183ZM18.9029-42.0227Q14.8653-42.0227 14.8653-46.061L14.8653-71.3911Q14.8653-75.4286 18.9029-75.4286L44.2337-75.4286Q48.2712-75.4286 48.2712-71.3911L48.2712-46.061Q48.2712-42.0227 44.2337-42.0227ZM65.9578-39.6183L91.5369-39.6183Q94.6039-39.6183 96.2295-41.09Q97.8552-42.5615 97.8552-45.9373L97.8552-71.5139Q97.8552-74.8907 96.2295-76.3624Q94.6039-77.8339 91.5369-77.8339L65.9578-77.8339Q62.8916-77.8339 61.2661-76.3624Q59.6405-74.8907 59.6405-71.5139L59.6405-45.9373Q59.6405-42.5615 61.2661-41.09Q62.8916-39.6183 65.9578-39.6183ZM66.0823-42.0227Q62.0449-42.0227 62.0449-46.061L62.0449-71.3911Q62.0449-75.4286 66.0823-75.4286L91.4132-75.4286Q95.4508-75.4286 95.4508-71.3911L95.4508-46.061Q95.4508-42.0227 91.4132-42.0227ZM18.7782 7.56126L44.3584 7.56126Q47.4245 7.56126 49.05 6.08961Q50.6756 4.61794 50.6756 1.24122L50.6756-24.3354Q50.6756-27.7112 49.05-29.1823Q47.4245-30.6533 44.3584-30.6533L18.7782-30.6533Q15.7122-30.6533 14.0865-29.1823Q12.4609-27.7112 12.4609-24.3354L12.4609 1.24122Q12.4609 4.61794 14.0865 6.08961Q15.7122 7.56126 18.7782 7.56126ZM18.9029 5.1559Q14.8653 5.1559 14.8653 1.11846L14.8653-24.2106Q14.8653-28.2501 18.9029-28.2501L44.2337-28.2501Q48.2712-28.2501 48.2712-24.2106L48.2712 1.11846Q48.2712 5.1559 44.2337 5.1559ZM65.9578 7.56126L91.5369 7.56126Q94.6039 7.56126 96.2295 6.08961Q97.8552 4.61794 97.8552 1.24122L97.8552-24.3354Q97.8552-27.7112 96.2295-29.1823Q94.6039-30.6533 91.5369-30.6533L65.9578-30.6533Q62.8916-30.6533 61.2661-29.1823Q59.6405-27.7112 59.6405-24.3354L59.6405 1.24122Q59.6405 4.61794 61.2661 6.08961Q62.8916 7.56126 65.9578 7.56126ZM66.0823 5.1559Q62.0449 5.1559 62.0449 1.11846L62.0449-24.2106Q62.0449-28.2501 66.0823-28.2501L91.4132-28.2501Q95.4508-28.2501 95.4508-24.2106L95.4508 1.11846Q95.4508 5.1559 91.4132 5.1559Z"/>
  </g>
  <g id="Black-S" transform="matrix(1 0 0 1 2885.5 696)">
   <path d="M22.5586-37.3047L33.0078-37.3047Q39.5996-37.3047 42.7002-40.4053Q45.8008-43.5059 45.8008-50.0977L45.8008-60.5469Q45.8008-67.1387 42.7002-70.2393Q39.5996-73.3398 33.0078-73.3398L22.5586-73.3398Q15.9668-73.3398 12.8662-70.2393Q9.76562-67.1387 9.76562-60.5469L9.76562-50.0977Q9.76562-43.5059 12.8662-40.4053Q15.9668-37.3047 22.5586-37.3047ZM22.4609-48.0469Q20.5078-48.0469 20.5078-50L20.5078-60.6445Q20.5078-62.5977 22.4609-62.5977L33.1055-62.5977Q35.0586-62.5977 35.0586-60.6445L35.0586-50Q35.0586-48.0469 33.1055-48.0469ZM62.793-37.3047L73.2422-37.3047Q79.834-37.3047 82.9346-40.4053Q86.0352-43.5059 86.0352-50.0977L86.0352-60.5469Q86.0352-67.1387 82.9346-70.2393Q79.834-73.3398 73.2422-73.3398L62.793-73.3398Q56.2012-73.3398 53.1006-70.2393Q50-67.1387 50-60.5469L50-50.0977Q50-43.5059 53.1006-40.4053Q56.2012-37.3047 62.793-37.3047ZM62.6953-48.0469Q60.7422-48.0469 60.7422-50L60.7422-60.6445Q60.7422-62.5977 62.6953-62.5977L73.3398-62.5977Q75.293-62.5977 75.293-60.6445L75.293-50Q75.293-48.0469 73.3398-48.0469ZM22.5586 2.92969L33.0078 2.92969Q39.5996 2.92969 42.7002-0.170898Q45.8008-3.27148 45.8008-9.86328L45.8008-20.3125Q45.8008-26.9043 42.7002-30.0049Q39.5996-33.1055 33.0078-33.1055L22.5586-33.1055Q15.9668-33.1055 12.8662-30.0049Q9.76562-26.9043 9.76562-20.3125L9.76562-9.86328Q9.76562-3.27148 12.8662-0.170898Q15.9668 2.92969 22.5586 2.92969ZM22.4609-7.8125Q20.5078-7.8125 20.5078-9.76562L20.5078-20.4102Q20.5078-22.3633 22.4609-22.3633L33.1055-22.3633Q35.0586-22.3633 35.0586-20.4102L35.0586-9.76562Q35.0586-7.8125 33.1055-7.8125ZM62.793 2.92969L73.2422 2.92969Q79.834 2.92969 82.9346-0.170898Q86.0352-3.27148 86.0352-9.86328L86.0352-20.3125Q86.0352-26.9043 82.9346-30.0049Q79.834-33.1055 73.2422-33.1055L62.793-33.1055Q56.2012-33.1055 53.1006-30.0049Q50-26.9043 50-20.3125L50-9.86328Q50-3.27148 53.1006-0.170898Q56.2012 2.92969 62.793 2.92969ZM62.6953-7.8125Q60.7422-7.8125 60.7422-9.76562L60.7422-20.4102Q60.7422-22.3633 62.6953-22.3633L73.3398-22.3633Q75.293-22.3633 75.293-20.4102L75.293-9.76562Q75.293-7.8125 73.3398-7.8125Z"/>
  </g>
  <g id="Heavy-S" transform="matrix(1 0 0 1 2589.39 696)">
   <path d="M21.3831-37.5352L33.342-37.5352Q39.3-37.5352 42.1297-40.3765Q44.9595-43.2178 44.9595-49.1988L44.9595-61.077Q44.9595-67.058 42.1297-69.8993Q39.3-72.7405 33.342-72.7405L21.3831-72.7405Q15.4252-72.7405 12.5954-69.8993Q9.76562-67.058 9.76562-61.077L9.76562-49.1988Q9.76562-43.2178 12.5954-40.3765Q15.4252-37.5352 21.3831-37.5352ZM21.32-47.1941Q19.413-47.1941 19.413-49.1241L19.413-61.1631Q19.413-63.0817 21.32-63.0817L33.3936-63.0817Q35.3121-63.0817 35.3121-61.1631L35.3121-49.1241Q35.3121-47.1941 33.3936-47.1941ZM61.2487-37.5352L73.2076-37.5352Q79.1771-37.5352 82.0011-40.3765Q84.8251-43.2178 84.8251-49.1988L84.8251-61.077Q84.8251-67.058 82.0011-69.8993Q79.1771-72.7405 73.2076-72.7405L61.2487-72.7405Q55.2908-72.7405 52.461-69.8993Q49.6312-67.058 49.6312-61.077L49.6312-49.1988Q49.6312-43.2178 52.461-40.3765Q55.2908-37.5352 61.2487-37.5352ZM61.1971-47.1941Q59.2786-47.1941 59.2786-49.1241L59.2786-61.1631Q59.2786-63.0817 61.1971-63.0817L73.2707-63.0817Q75.1778-63.0817 75.1778-61.1631L75.1778-49.1241Q75.1778-47.1941 73.2707-47.1941ZM21.3831 2.33042L33.342 2.33042Q39.3 2.33042 42.1297-0.505107Q44.9595-3.34063 44.9595-9.33316L44.9595-21.2114Q44.9595-27.1924 42.1297-30.0279Q39.3-32.8635 33.342-32.8635L21.3831-32.8635Q15.4252-32.8635 12.5954-30.0279Q9.76562-27.1924 9.76562-21.2114L9.76562-9.33316Q9.76562-3.34063 12.5954-0.505107Q15.4252 2.33042 21.3831 2.33042ZM21.32-7.32847Q19.413-7.32847 19.413-9.24702L19.413-21.2861Q19.413-23.2161 21.32-23.2161L33.3936-23.2161Q35.3121-23.2161 35.3121-21.2861L35.3121-9.24702Q35.3121-7.32847 33.3936-7.32847ZM61.2487 2.33042L73.2076 2.33042Q79.1771 2.33042 82.0011-0.505107Q84.8251-3.34063 84.8251-9.33316L84.8251-21.2114Q84.8251-27.1924 82.0011-30.0279Q79.1771-32.8635 73.2076-32.8635L61.2487-32.8635Q55.2908-32.8635 52.461-30.0279Q49.6312-27.1924 49.6312-21.2114L49.6312-9.33316Q49.6312-3.34063 52.461-0.505107Q55.2908 2.33042 61.2487 2.33042ZM61.1971-7.32847Q59.2786-7.32847 59.2786-9.24702L59.2786-21.2861Q59.2786-23.2161 61.1971-23.2161L73.2707-23.2161Q75.1778-23.2161 75.1778-21.2861L75.1778-9.24702Q75.1778-7.32847 73.2707-7.32847Z"/>
  </g>
  <g id="Bold-S" transform="matrix(1 0 0 1 2293.36 696)">
   <path d="M20.0683-37.793L33.7158-37.793Q38.9648-37.793 41.4917-40.3442Q44.0186-42.8956 44.0186-48.1934L44.0186-61.67Q44.0186-66.9678 41.4917-69.519Q38.9648-72.0703 33.7158-72.0703L20.0683-72.0703Q14.8194-72.0703 12.2925-69.519Q9.76562-66.9678 9.76562-61.67L9.76562-48.1934Q9.76562-42.8956 12.2925-40.3442Q14.8194-37.793 20.0683-37.793ZM20.0439-46.2403Q18.1884-46.2403 18.1884-48.1445L18.1884-61.7432Q18.1884-63.6231 20.0439-63.6231L33.7159-63.6231Q35.5957-63.6231 35.5957-61.7432L35.5957-48.1445Q35.5957-46.2403 33.7159-46.2403ZM59.5215-37.793L73.169-37.793Q78.4424-37.793 80.957-40.3442Q83.4717-42.8956 83.4717-48.1934L83.4717-61.67Q83.4717-66.9678 80.957-69.519Q78.4424-72.0703 73.169-72.0703L59.5215-72.0703Q54.2725-72.0703 51.7456-69.519Q49.2188-66.9678 49.2188-61.67L49.2188-48.1934Q49.2188-42.8956 51.7456-40.3442Q54.2725-37.793 59.5215-37.793ZM59.5215-46.2403Q57.6416-46.2403 57.6416-48.1445L57.6416-61.7432Q57.6416-63.6231 59.5215-63.6231L73.1934-63.6231Q75.0489-63.6231 75.0489-61.7432L75.0489-48.1445Q75.0489-46.2403 73.1934-46.2403ZM20.0683 1.66016L33.7158 1.66016Q38.9648 1.66016 41.4917-0.878904Q44.0186-3.41796 44.0186-8.74024L44.0186-22.2168Q44.0186-27.5147 41.4917-30.0537Q38.9648-32.5928 33.7158-32.5928L20.0683-32.5928Q14.8194-32.5928 12.2925-30.0537Q9.76562-27.5147 9.76562-22.2168L9.76562-8.74024Q9.76562-3.41796 12.2925-0.878904Q14.8194 1.66016 20.0683 1.66016ZM20.0439-6.78711Q18.1884-6.78711 18.1884-8.66699L18.1884-22.2656Q18.1884-24.1699 20.0439-24.1699L33.7159-24.1699Q35.5957-24.1699 35.5957-22.2656L35.5957-8.66699Q35.5957-6.78711 33.7159-6.78711ZM59.5215 1.66016L73.169 1.66016Q78.4424 1.66016 80.957-0.878904Q83.4717-3.41796 83.4717-8.74024L83.4717-22.2168Q83.4717-27.5147 80.957-30.0537Q78.4424-32.5928 73.169-32.5928L59.5215-32.5928Q54.2725-32.5928 51.7456-30.0537Q49.2188-27.5147 49.2188-22.2168L49.2188-8.74024Q49.2188-3.41796 51.7456-0.878904Q54.2725 1.66016 59.5215 1.66016ZM59.5215-6.78711Q57.6416-6.78711 57.6416-8.66699L57.6416-22.2656Q57.6416-24.1699 59.5215-24.1699L73.1934-24.1699Q75.0489-24.1699 75.0489-22.2656L75.0489-8.66699Q75.0489-6.78711 73.1934-6.78711Z"/>
  </g>
  <g id="Semibold-S" transform="matrix(1 0 0 1 1997.12 696)">
   <path d="M19.1619-37.9707L33.9735-37.9707Q38.7338-37.9707 41.0518-40.322Q43.3698-42.6734 43.3698-47.5002L43.3698-62.0787Q43.3698-66.9056 41.0518-69.2569Q38.7338-71.6082 33.9735-71.6082L19.1619-71.6082Q14.4017-71.6082 12.0837-69.2569Q9.76562-66.9056 9.76562-62.0787L9.76562-47.5002Q9.76562-42.6734 12.0837-40.322Q14.4017-37.9707 19.1619-37.9707ZM19.1642-45.5826Q17.3442-45.5826 17.3442-47.4692L17.3442-62.1431Q17.3442-63.9963 19.1642-63.9963L33.938-63.9963Q35.7912-63.9963 35.7912-62.1431L35.7912-47.4692Q35.7912-45.5826 33.938-45.5826ZM58.3307-37.9707L73.1423-37.9707Q77.9359-37.9707 80.2372-40.322Q82.5386-42.6734 82.5386-47.5002L82.5386-62.0787Q82.5386-66.9056 80.2372-69.2569Q77.9359-71.6082 73.1423-71.6082L58.3307-71.6082Q53.5705-71.6082 51.2524-69.2569Q48.9344-66.9056 48.9344-62.0787L48.9344-47.5002Q48.9344-42.6734 51.2524-40.322Q53.5705-37.9707 58.3307-37.9707ZM58.3662-45.5826Q56.513-45.5826 56.513-47.4692L56.513-62.1431Q56.513-63.9963 58.3662-63.9963L73.14-63.9963Q74.96-63.9963 74.96-62.1431L74.96-47.4692Q74.96-45.5826 73.14-45.5826ZM19.1619 1.19805L33.9735 1.19805Q38.7338 1.19805 41.0518-1.13662Q43.3698-3.47129 43.3698-8.33145L43.3698-22.91Q43.3698-27.7368 41.0518-30.0715Q38.7338-32.4062 33.9735-32.4062L19.1619-32.4062Q14.4017-32.4062 12.0837-30.0715Q9.76562-27.7368 9.76562-22.91L9.76562-8.33145Q9.76562-3.47129 12.0837-1.13662Q14.4017 1.19805 19.1619 1.19805ZM19.1642-6.41387Q17.3442-6.41387 17.3442-8.26709L17.3442-22.941Q17.3442-24.8276 19.1642-24.8276L33.938-24.8276Q35.7912-24.8276 35.7912-22.941L35.7912-8.26709Q35.7912-6.41387 33.938-6.41387ZM58.3307 1.19805L73.1423 1.19805Q77.9359 1.19805 80.2372-1.13662Q82.5386-3.47129 82.5386-8.33145L82.5386-22.91Q82.5386-27.7368 80.2372-30.0715Q77.9359-32.4062 73.1423-32.4062L58.3307-32.4062Q53.5705-32.4062 51.2524-30.0715Q48.9344-27.7368 48.9344-22.91L48.9344-8.33145Q48.9344-3.47129 51.2524-1.13662Q53.5705 1.19805 58.3307 1.19805ZM58.3662-6.41387Q56.513-6.41387 56.513-8.26709L56.513-22.941Q56.513-24.8276 58.3662-24.8276L73.14-24.8276Q74.96-24.8276 74.96-22.941L74.96-8.26709Q74.96-6.41387 73.14-6.41387Z"/>
  </g>
  <g id="Medium-S" transform="matrix(1 0 0 1 1700.76 696)">
   <path d="M18.4746-38.1054L34.1689-38.1054Q38.5586-38.1054 40.7183-40.3052Q42.8779-42.5049 42.8779-46.9746L42.8779-62.3887Q42.8779-66.8584 40.7183-69.0581Q38.5586-71.2578 34.1689-71.2578L18.4746-71.2578Q14.085-71.2578 11.9253-69.0581Q9.76562-66.8584 9.76562-62.3887L9.76562-46.9746Q9.76562-42.5049 11.9253-40.3052Q14.085-38.1054 18.4746-38.1054ZM18.4971-45.084Q16.7041-45.084 16.7041-46.9571L16.7041-62.4463Q16.7041-64.2793 18.4971-64.2793L34.1065-64.2793Q35.9394-64.2793 35.9394-62.4463L35.9394-46.9571Q35.9394-45.084 34.1065-45.084ZM57.4277-38.1054L73.1221-38.1054Q77.5518-38.1054 79.6914-40.3052Q81.8311-42.5049 81.8311-46.9746L81.8311-62.3887Q81.8311-66.8584 79.6914-69.0581Q77.5518-71.2578 73.1221-71.2578L57.4277-71.2578Q53.0381-71.2578 50.8784-69.0581Q48.7188-66.8584 48.7188-62.3887L48.7188-46.9746Q48.7188-42.5049 50.8784-40.3052Q53.0381-38.1054 57.4277-38.1054ZM57.4903-45.084Q55.6572-45.084 55.6572-46.9571L55.6572-62.4463Q55.6572-64.2793 57.4903-64.2793L73.0996-64.2793Q74.8926-64.2793 74.8926-62.4463L74.8926-46.9571Q74.8926-45.084 73.0996-45.084ZM18.4746 0.847657L34.1689 0.847657Q38.5586 0.847657 40.7183-1.33203Q42.8779-3.51172 42.8779-8.02149L42.8779-23.4356Q42.8779-27.9053 40.7183-30.0849Q38.5586-32.2647 34.1689-32.2647L18.4746-32.2647Q14.085-32.2647 11.9253-30.0849Q9.76562-27.9053 9.76562-23.4356L9.76562-8.02149Q9.76562-3.51172 11.9253-1.33203Q14.085 0.847657 18.4746 0.847657ZM18.4971-6.13086Q16.7041-6.13086 16.7041-7.96387L16.7041-23.4531Q16.7041-25.3262 18.4971-25.3262L34.1065-25.3262Q35.9394-25.3262 35.9394-23.4531L35.9394-7.96387Q35.9394-6.13086 34.1065-6.13086ZM57.4277 0.847657L73.1221 0.847657Q77.5518 0.847657 79.6914-1.33203Q81.8311-3.51172 81.8311-8.02149L81.8311-23.4356Q81.8311-27.9053 79.6914-30.0849Q77.5518-32.2647 73.1221-32.2647L57.4277-32.2647Q53.0381-32.2647 50.8784-30.0849Q48.7188-27.9053 48.7188-23.4356L48.7188-8.02149Q48.7188-3.51172 50.8784-1.33203Q53.0381 0.847657 57.4277 0.847657ZM57.4903-6.13086Q55.6572-6.13086 55.6572-7.96387L55.6572-23.4531Q55.6572-25.3262 57.4903-25.3262L73.0996-25.3262Q74.8926-25.3262 74.8926-23.4531L74.8926-7.96387Q74.8926-6.13086 73.0996-6.13086Z"/>
  </g>
  <g id="Regular-S" transform="matrix(1 0 0 1 1404.51 696)">
   <path d="M17.5781-38.2812L34.4238-38.2812Q38.3301-38.2812 40.2832-40.2832Q42.2363-42.2852 42.2363-46.2891L42.2363-62.793Q42.2363-66.7969 40.2832-68.7988Q38.3301-70.8008 34.4238-70.8008L17.5781-70.8008Q13.6719-70.8008 11.7188-68.7988Q9.76562-66.7969 9.76562-62.793L9.76562-46.2891Q9.76562-42.2852 11.7188-40.2832Q13.6719-38.2812 17.5781-38.2812ZM17.627-44.4336Q15.8691-44.4336 15.8691-46.2891L15.8691-62.8418Q15.8691-64.6484 17.627-64.6484L34.3262-64.6484Q36.1328-64.6484 36.1328-62.8418L36.1328-46.2891Q36.1328-44.4336 34.3262-44.4336ZM56.25-38.2812L73.0957-38.2812Q77.0508-38.2812 78.9795-40.2832Q80.9082-42.2852 80.9082-46.2891L80.9082-62.793Q80.9082-66.7969 78.9795-68.7988Q77.0508-70.8008 73.0957-70.8008L56.25-70.8008Q52.3438-70.8008 50.3906-68.7988Q48.4375-66.7969 48.4375-62.793L48.4375-46.2891Q48.4375-42.2852 50.3906-40.2832Q52.3438-38.2812 56.25-38.2812ZM56.3477-44.4336Q54.541-44.4336 54.541-46.2891L54.541-62.8418Q54.541-64.6484 56.3477-64.6484L73.0469-64.6484Q74.8047-64.6484 74.8047-62.8418L74.8047-46.2891Q74.8047-44.4336 73.0469-44.4336ZM17.5781 0.390625L34.4238 0.390625Q38.3301 0.390625 40.2832-1.58691Q42.2363-3.56445 42.2363-7.61719L42.2363-24.1211Q42.2363-28.125 40.2832-30.1025Q38.3301-32.0801 34.4238-32.0801L17.5781-32.0801Q13.6719-32.0801 11.7188-30.1025Q9.76562-28.125 9.76562-24.1211L9.76562-7.61719Q9.76562-3.56445 11.7188-1.58691Q13.6719 0.390625 17.5781 0.390625ZM17.627-5.76172Q15.8691-5.76172 15.8691-7.56836L15.8691-24.1211Q15.8691-25.9766 17.627-25.9766L34.3262-25.9766Q36.1328-25.9766 36.1328-24.1211L36.1328-7.56836Q36.1328-5.76172 34.3262-5.76172ZM56.25 0.390625L73.0957 0.390625Q77.0508 0.390625 78.9795-1.58691Q80.9082-3.56445 80.9082-7.61719L80.9082-24.1211Q80.9082-28.125 78.9795-30.1025Q77.0508-32.0801 73.0957-32.0801L56.25-32.0801Q52.3438-32.0801 50.3906-30.1025Q48.4375-28.125 48.4375-24.1211L48.4375-7.61719Q48.4375-3.56445 50.3906-1.58691Q52.3438 0.390625 56.25 0.390625ZM56.3477-5.76172Q54.541-5.76172 54.541-7.56836L54.541-24.1211Q54.541-25.9766 56.3477-25.9766L73.0469-25.9766Q74.8047-25.9766 74.8047-24.1211L74.8047-7.56836Q74.8047-5.76172 73.0469-5.76172Z"/>
  </g>
  <g id="Light-S" transform="matrix(1 0 0 1 1108.46 696)">
   <path d="M16.685-38.4023L34.5299-38.4023Q37.9669-38.4023 39.7081-40.1394Q41.4492-41.8765 41.4492-45.4565L41.4492-63.0654Q41.4492-66.6456 39.7081-68.3826Q37.9669-70.1197 34.5299-70.1197L16.685-70.1197Q13.248-70.1197 11.5068-68.3826Q9.76562-66.6456 9.76562-63.0654L9.76562-45.4565Q9.76562-41.8765 11.5068-40.1394Q13.248-38.4023 16.685-38.4023ZM16.7491-43.2226Q14.5523-43.2226 14.5523-45.4867L14.5523-63.0689Q14.5523-65.2992 16.7491-65.2992L34.4322-65.2992Q36.6625-65.2992 36.6625-63.0689L36.6625-45.4867Q36.6625-43.2226 34.4322-43.2226ZM54.8271-38.4023L72.6718-38.4023Q76.1426-38.4023 77.867-40.1394Q79.5914-41.8765 79.5914-45.4565L79.5914-63.0654Q79.5914-66.6456 77.867-68.3826Q76.1426-70.1197 72.6718-70.1197L54.8271-70.1197Q51.3901-70.1197 49.6489-68.3826Q47.9078-66.6456 47.9078-63.0654L47.9078-45.4565Q47.9078-41.8765 49.6489-40.1394Q51.3901-38.4023 54.8271-38.4023ZM54.9248-43.2226Q52.6944-43.2226 52.6944-45.4867L52.6944-63.0689Q52.6944-65.2992 54.9248-65.2992L72.6079-65.2992Q74.8047-65.2992 74.8047-63.0689L74.8047-45.4867Q74.8047-43.2226 72.6079-43.2226ZM16.685-0.260163L34.5299-0.260163Q37.9669-0.260163 39.7081-1.98046Q41.4492-3.70076 41.4492-7.31456L41.4492-24.9235Q41.4492-28.5034 39.7081-30.2236Q37.9669-31.9438 34.5299-31.9438L16.685-31.9438Q13.248-31.9438 11.5068-30.2236Q9.76562-28.5034 9.76562-24.9235L9.76562-7.31456Q9.76562-3.70076 11.5068-1.98046Q13.248-0.260163 16.685-0.260163ZM16.7491-5.08067Q14.5523-5.08067 14.5523-7.31099L14.5523-24.8929Q14.5523-27.1574 16.7491-27.1574L34.4322-27.1574Q36.6625-27.1574 36.6625-24.8929L36.6625-7.31099Q36.6625-5.08067 34.4322-5.08067ZM54.8271-0.260163L72.6718-0.260163Q76.1426-0.260163 77.867-1.98046Q79.5914-3.70076 79.5914-7.31456L79.5914-24.9235Q79.5914-28.5034 77.867-30.2236Q76.1426-31.9438 72.6718-31.9438L54.8271-31.9438Q51.3901-31.9438 49.6489-30.2236Q47.9078-28.5034 47.9078-24.9235L47.9078-7.31456Q47.9078-3.70076 49.6489-1.98046Q51.3901-0.260163 54.8271-0.260163ZM54.9248-5.08067Q52.6944-5.08067 52.6944-7.31099L52.6944-24.8929Q52.6944-27.1574 54.9248-27.1574L72.6079-27.1574Q74.8047-27.1574 74.8047-24.8929L74.8047-7.31099Q74.8047-5.08067 72.6079-5.08067Z"/>
  </g>
  <g id="Thin-S" transform="matrix(1 0 0 1 812.615 696)">
   <path d="M15.5037-38.5624L34.6701-38.5624Q37.4866-38.5624 38.9474-39.9492Q40.4082-41.336 40.4082-44.3552L40.4082-63.4256Q40.4082-66.4454 38.9474-67.8322Q37.4866-69.219 34.6701-69.219L15.5037-69.219Q12.6873-69.219 11.2264-67.8322Q9.76562-66.4454 9.76562-63.4256L9.76562-44.3552Q9.76562-41.336 11.2264-39.9492Q12.6873-38.5624 15.5037-38.5624ZM15.588-41.6209Q12.8106-41.6209 12.8106-44.4255L12.8106-63.3693Q12.8106-66.1599 15.588-66.1599L34.5725-66.1599Q37.3631-66.1599 37.3631-63.3693L37.3631-44.4255Q37.3631-41.6209 34.5725-41.6209ZM52.9453-38.5624L72.1111-38.5624Q74.9415-38.5624 76.3956-39.9492Q77.8497-41.336 77.8497-44.3552L77.8497-63.4256Q77.8497-66.4454 76.3956-67.8322Q74.9415-69.219 72.1111-69.219L52.9453-69.219Q50.1288-69.219 48.6679-67.8322Q47.2072-66.4454 47.2072-63.4256L47.2072-44.3552Q47.2072-41.336 48.6679-39.9492Q50.1288-38.5624 52.9453-38.5624ZM53.0429-41.6209Q50.2522-41.6209 50.2522-44.4255L50.2522-63.3693Q50.2522-66.1599 53.0429-66.1599L72.0274-66.1599Q74.8047-66.1599 74.8047-63.3693L74.8047-44.4255Q74.8047-41.6209 72.0274-41.6209ZM15.5037-1.12088L34.6701-1.12088Q37.4866-1.12088 38.9474-2.50096Q40.4082-3.88105 40.4082-6.9143L40.4082-25.9847Q40.4082-29.0039 38.9474-30.3837Q37.4866-31.7635 34.6701-31.7635L15.5037-31.7635Q12.6873-31.7635 11.2264-30.3837Q9.76562-29.0039 9.76562-25.9847L9.76562-6.9143Q9.76562-3.88105 11.2264-2.50096Q12.6873-1.12088 15.5037-1.12088ZM15.588-4.17993Q12.8106-4.17993 12.8106-6.97061L12.8106-25.9137Q12.8106-28.719 15.588-28.719L34.5725-28.719Q37.3631-28.719 37.3631-25.9137L37.3631-6.97061Q37.3631-4.17993 34.5725-4.17993ZM52.9453-1.12088L72.1111-1.12088Q74.9415-1.12088 76.3956-2.50096Q77.8497-3.88105 77.8497-6.9143L77.8497-25.9847Q77.8497-29.0039 76.3956-30.3837Q74.9415-31.7635 72.1111-31.7635L52.9453-31.7635Q50.1288-31.7635 48.6679-30.3837Q47.2072-29.0039 47.2072-25.9847L47.2072-6.9143Q47.2072-3.88105 48.6679-2.50096Q50.1288-1.12088 52.9453-1.12088ZM53.0429-4.17993Q50.2522-4.17993 50.2522-6.97061L50.2522-25.9137Q50.2522-28.719 53.0429-28.719L72.0274-28.719Q74.8047-28.719 74.8047-25.9137L74.8047-6.97061Q74.8047-4.17993 72.0274-4.17993Z"/>
  </g>
  <g id="Ultralight-S" transform="matrix(1 0 0 1 516.35 696)">
   <path d="M14.8987-38.6444L34.742-38.6444Q37.2406-38.6444 38.5578-39.8518Q39.875-41.0591 39.875-43.7912L39.875-63.6101Q39.875-66.3429 38.5578-67.5503Q37.2406-68.7576 34.742-68.7576L14.8987-68.7576Q12.4001-68.7576 11.0828-67.5503Q9.76562-66.3429 9.76562-63.6101L9.76562-43.7912Q9.76562-41.0591 11.0828-39.8518Q12.4001-38.6444 14.8987-38.6444ZM14.9933-40.8005Q11.9186-40.8005 11.9186-43.882L11.9186-63.5231Q11.9186-66.6008 14.9933-66.6008L34.6443-66.6008Q37.722-66.6008 37.722-63.5231L37.722-43.882Q37.722-40.8005 34.6443-40.8005ZM51.9814-38.6444L71.8239-38.6444Q74.3263-38.6444 75.642-39.8518Q76.9577-41.0591 76.9577-43.7912L76.9577-63.6101Q76.9577-66.3429 75.642-67.5503Q74.3263-68.7576 71.8239-68.7576L51.9814-68.7576Q49.4827-68.7576 48.1655-67.5503Q46.8483-66.3429 46.8483-63.6101L46.8483-43.7912Q46.8483-41.0591 48.1655-39.8518Q49.4827-38.6444 51.9814-38.6444ZM52.079-40.8005Q49.0013-40.8005 49.0013-43.882L49.0013-63.5231Q49.0013-66.6008 52.079-66.6008L71.73-66.6008Q74.8047-66.6008 74.8047-63.5231L74.8047-43.882Q74.8047-40.8005 71.73-40.8005ZM14.8987-1.56174L34.742-1.56174Q37.2406-1.56174 38.5578-2.76756Q39.875-3.97339 39.875-6.70929L39.875-26.5282Q39.875-29.2603 38.5578-30.4657Q37.2406-31.6711 34.742-31.6711L14.8987-31.6711Q12.4001-31.6711 11.0828-30.4657Q9.76562-29.2603 9.76562-26.5282L9.76562-6.70929Q9.76562-3.97339 11.0828-2.76756Q12.4001-1.56174 14.8987-1.56174ZM14.9933-3.71857Q11.9186-3.71857 11.9186-6.79626L11.9186-26.4366Q11.9186-29.5189 14.9933-29.5189L34.6443-29.5189Q37.722-29.5189 37.722-26.4366L37.722-6.79626Q37.722-3.71857 34.6443-3.71857ZM51.9814-1.56174L71.8239-1.56174Q74.3263-1.56174 75.642-2.76756Q76.9577-3.97339 76.9577-6.70929L76.9577-26.5282Q76.9577-29.2603 75.642-30.4657Q74.3263-31.6711 71.8239-31.6711L51.9814-31.6711Q49.4827-31.6711 48.1655-30.4657Q46.8483-29.2603 46.8483-26.5282L46.8483-6.70929Q46.8483-3.97339 48.1655-2.76756Q49.4827-1.56174 51.9814-1.56174ZM52.079-3.71857Q49.0013-3.71857 49.0013-6.79626L49.0013-26.4366Q49.0013-29.5189 52.079-29.5189L71.73-29.5189Q74.8047-29.5189 74.8047-26.4366L74.8047-6.79626Q74.8047-3.71857 71.73-3.71857Z"/>
  </g>
 </g>
</svg>
